<?xml version="1.0" encoding="UTF-8" standalone="no"?>
<!-- Created with Inkscape (http://www.inkscape.org/) -->

<svg
   xmlns:dc="http://purl.org/dc/elements/1.1/"
   xmlns:cc="http://creativecommons.org/ns#"
   xmlns:rdf="http://www.w3.org/1999/02/22-rdf-syntax-ns#"
   xmlns:svg="http://www.w3.org/2000/svg"
   xmlns="http://www.w3.org/2000/svg"
   xmlns:sodipodi="http://sodipodi.sourceforge.net/DTD/sodipodi-0.dtd"
   xmlns:inkscape="http://www.inkscape.org/namespaces/inkscape"
   width="64.034752mm"
   height="56.011948mm"
   viewBox="0 0 226.89479 198.46753"
   id="svg2"
   version="1.1"
   inkscape:version="0.91 r13725"
   sodipodi:docname="drawing.svg">
  <defs
     id="defs4" />
  <sodipodi:namedview
     id="base"
     pagecolor="#ffffff"
     bordercolor="#666666"
     borderopacity="1.0"
     inkscape:pageopacity="0.0"
     inkscape:pageshadow="2"
     inkscape:zoom="2.4352162"
     inkscape:cx="110.91679"
     inkscape:cy="97.325863"
     inkscape:document-units="px"
     inkscape:current-layer="layer2"
     showgrid="false"
     showguides="false"
     inkscape:snap-bbox="true"
     inkscape:bbox-paths="false"
     inkscape:bbox-nodes="false"
     inkscape:snap-bbox-edge-midpoints="false"
     inkscape:snap-bbox-midpoints="false"
     inkscape:object-paths="true"
     inkscape:snap-intersection-paths="true"
     inkscape:object-nodes="true"
     inkscape:snap-smooth-nodes="true"
     inkscape:snap-midpoints="true"
     inkscape:snap-object-midpoints="true"
     inkscape:snap-center="true"
     inkscape:window-width="1396"
     inkscape:window-height="724"
     inkscape:window-x="-8"
     inkscape:window-y="-8"
     inkscape:window-maximized="1"
     fit-margin-top="0"
     fit-margin-left="0"
     fit-margin-right="0"
     fit-margin-bottom="0">
    <inkscape:grid
       type="xygrid"
       id="grid3364"
       originx="-215.65298px"
       originy="-566.61441px" />
  </sodipodi:namedview>
  <metadata
     id="metadata7">
    <rdf:RDF>
      <cc:Work
         rdf:about="">
        <dc:format>image/svg+xml</dc:format>
        <dc:type
           rdf:resource="http://purl.org/dc/dcmitype/StillImage" />
        <dc:title />
      </cc:Work>
    </rdf:RDF>
  </metadata>
  <g
     inkscape:groupmode="layer"
     id="layer2"
     inkscape:label="Layer 2"
     transform="translate(-215.65298,-287.28029)">
    <path
       style="opacity:1;fill:none;fill-rule:evenodd;stroke:#000000;stroke-width:1px;stroke-linecap:butt;stroke-linejoin:miter;stroke-opacity:1"
       d="m 288.40298,296.78147 0,145 145,0"
       id="path4166"
       inkscape:connector-curvature="0" />
    <path
       style="opacity:1;fill:none;fill-rule:evenodd;stroke:#000000;stroke-width:0.5;stroke-linecap:butt;stroke-linejoin:miter;stroke-miterlimit:4;stroke-dasharray:none;stroke-opacity:1"
       d="m 288.40298,441.78147 84.81119,-111.3932"
       id="path4176"
       inkscape:connector-curvature="0"
       sodipodi:nodetypes="cc" />
    <path
       style="opacity:1;fill:none;fill-rule:evenodd;stroke:#000000;stroke-width:0.5;stroke-linecap:butt;stroke-linejoin:miter;stroke-miterlimit:4;stroke-dasharray:none;stroke-opacity:1"
       d="M 395.94393,363.32184 288.40298,441.78147 421.88796,355.53763"
       id="path4178"
       inkscape:connector-curvature="0"
       sodipodi:nodetypes="ccc" />
    <path
       style="opacity:1;fill:none;fill-rule:evenodd;stroke:#000000;stroke-width:0.5;stroke-linecap:butt;stroke-linejoin:miter;stroke-miterlimit:4;stroke-dasharray:4, 4;stroke-dashoffset:0;stroke-opacity:1"
       d="m 383.08557,378.54665 0,83"
       id="path4184"
       inkscape:connector-curvature="0"
       sodipodi:nodetypes="cc" />
    <path
       style="opacity:1;fill:none;fill-rule:evenodd;stroke:#000000;stroke-width:0.5;stroke-linecap:butt;stroke-linejoin:miter;stroke-miterlimit:4;stroke-dasharray:none;stroke-opacity:1"
       d="M 288.40298,441.78147 367.07623,324.47503"
       id="path4180"
       inkscape:connector-curvature="0"
       sodipodi:nodetypes="cc" />
    <path
       style="opacity:1;fill:none;fill-rule:evenodd;stroke:#000000;stroke-width:0.5;stroke-linecap:butt;stroke-linejoin:miter;stroke-miterlimit:4;stroke-dasharray:4, 4;stroke-dashoffset:0;stroke-opacity:1"
       d="m 360,389.3622 0,83 0,0"
       id="path4182"
       inkscape:connector-curvature="0"
       sodipodi:nodetypes="ccc" />
    <ellipse
       style="opacity:1;fill:none;stroke:#000000;stroke-width:0.5;stroke-miterlimit:4;stroke-dasharray:none;stroke-dashoffset:0;stroke-opacity:1"
       id="path4195"
       cx="288.40298"
       cy="349.65689"
       rx="72.5"
       ry="12.500009" />
    <path
       inkscape:connector-curvature="0"
       id="path4206"
       d="m 288.40298,441.78147 -37.5,37.5"
       style="opacity:1;fill:none;fill-rule:evenodd;stroke:#000000;stroke-width:1;stroke-linecap:butt;stroke-linejoin:miter;stroke-miterlimit:4;stroke-dasharray:none;stroke-opacity:1" />
    <path
       style="opacity:1;fill:none;stroke:#000000;stroke-width:0.5;stroke-miterlimit:4;stroke-dasharray:none;stroke-dashoffset:0;stroke-opacity:1"
       id="path4236"
       sodipodi:type="arc"
       sodipodi:cx="288.40298"
       sodipodi:cy="442.25146"
       sodipodi:rx="79.214874"
       sodipodi:ry="122.5"
       sodipodi:start="4.7118944"
       sodipodi:end="0.19533031"
       d="m 288.36381,319.75148 a 79.214874,122.5 0 0 1 61.23505,44.71516 79.214874,122.5 0 0 1 16.51262,101.56092"
       sodipodi:open="true" />
    <path
       style="opacity:1;fill:none;stroke:#000000;stroke-width:0.5;stroke-miterlimit:4;stroke-dasharray:none;stroke-dashoffset:0;stroke-opacity:1"
       id="path4240"
       sodipodi:type="arc"
       sodipodi:cx="289.36472"
       sodipodi:cy="441.78146"
       sodipodi:rx="109.57941"
       sodipodi:ry="122.03503"
       sodipodi:start="4.7027129"
       sodipodi:end="0.1564948"
       d="m 288.30443,319.75215 a 109.57941,122.03503 0 0 1 84.01891,42.29886 109.57941,122.03503 0 0 1 25.28168,98.75044"
       sodipodi:open="true" />
    <path
       id="ellipse4220-7"
       style="opacity:1;fill:none;stroke:#000000;stroke-width:0.5;stroke-miterlimit:4;stroke-dasharray:none;stroke-dashoffset:0;stroke-opacity:1"
       sodipodi:type="arc"
       sodipodi:cx="287.06525"
       sodipodi:cy="378.46155"
       sodipodi:rx="96.019737"
       sodipodi:ry="17.489738"
       sodipodi:start="0"
       sodipodi:end="0.70812795"
       sodipodi:open="true"
       d="M 383.08498,378.46155 A 96.019737,17.489738 0 0 1 360,389.8371" />
    <path
       id="ellipse4220-7-5"
       style="opacity:1;fill:none;stroke:#000000;stroke-width:0.5;stroke-miterlimit:4;stroke-dasharray:none;stroke-dashoffset:0;stroke-opacity:1"
       sodipodi:type="arc"
       sodipodi:cx="287.50638"
       sodipodi:cy="460.98663"
       sodipodi:rx="95.439003"
       sodipodi:ry="17.489738"
       sodipodi:start="0"
       sodipodi:end="0.70812795"
       sodipodi:open="true"
       d="m 382.94538,460.98663 a 95.439003,17.489738 0 0 1 -22.94537,11.37556" />
    <path
       style="opacity:1;fill:none;stroke:#000000;stroke-width:0.5;stroke-miterlimit:4;stroke-dasharray:none;stroke-dashoffset:0;stroke-opacity:1"
       id="path4236-7"
       sodipodi:type="arc"
       sodipodi:cx="288.40298"
       sodipodi:cy="416.65689"
       sodipodi:rx="119.45771"
       sodipodi:ry="122.5"
       sodipodi:start="5.4313279"
       sodipodi:end="5.8327159"
       d="m 367.07623,324.47503 a 119.45771,122.5 0 0 1 28.8677,38.84681"
       sodipodi:open="true" />
    <path
       style="opacity:1;fill:none;stroke:#000000;stroke-width:0.5;stroke-miterlimit:4;stroke-dasharray:none;stroke-dashoffset:0;stroke-opacity:1"
       id="path4195-5"
       sodipodi:type="arc"
       sodipodi:cx="413.48987"
       sodipodi:cy="118.97834"
       sodipodi:rx="70.812569"
       sodipodi:ry="17.436251"
       sodipodi:start="6.1106445"
       sodipodi:end="0.57872291"
       d="m 483.25099,115.98478 a 70.812569,17.436251 0 0 1 -10.47954,12.53041"
       transform="matrix(0.89673802,0.44256177,-0.44256177,0.89673802,0,0)"
       sodipodi:open="true" />
    <path
       style="opacity:1;fill:none;stroke:#000000;stroke-width:0.5;stroke-miterlimit:4;stroke-dasharray:none;stroke-dashoffset:0;stroke-opacity:1"
       id="path4195-5-8"
       sodipodi:type="arc"
       sodipodi:cx="464.83405"
       sodipodi:cy="-247.32669"
       sodipodi:rx="23.971655"
       sodipodi:ry="28.730843"
       sodipodi:start="5.8889564"
       sodipodi:end="0.57872291"
       d="m 486.96691,-258.3621 a 23.971655,28.730843 0 0 1 -2.06471,26.74989"
       transform="matrix(0.37345529,0.92764818,-0.92764818,0.37345529,0,0)"
       sodipodi:open="true" />
    <path
       style="opacity:1;fill:none;stroke:#000000;stroke-width:0.5;stroke-miterlimit:4;stroke-dasharray:none;stroke-dashoffset:0;stroke-opacity:1"
       id="path4236-7-3"
       sodipodi:type="arc"
       sodipodi:cx="250.16182"
       sodipodi:cy="469.88602"
       sodipodi:rx="119.45771"
       sodipodi:ry="122.5"
       sodipodi:start="5.3993983"
       sodipodi:end="5.8515014"
       d="m 325.92522,375.1756 a 119.45771,122.5 0 0 1 32.73556,43.45632"
       transform="matrix(0.98698351,-0.16082146,0.16082146,0.98698351,0,0)"
       sodipodi:open="true" />
    <path
       style="fill:#000000;fill-opacity:1;fill-rule:evenodd;stroke:#000000;stroke-width:0.68839669px;stroke-linecap:butt;stroke-linejoin:miter;stroke-opacity:1"
       d="m 285.62604,296.42508 2.91597,-8.12575 2.91597,8.12575 z"
       id="path4557"
       inkscape:connector-curvature="0" />
    <path
       style="fill:#000000;fill-opacity:1;fill-rule:evenodd;stroke:#000000;stroke-width:0.68839669px;stroke-linecap:butt;stroke-linejoin:miter;stroke-opacity:1"
       d="m 433.40298,438.8655 8.12575,2.91597 -8.12575,2.91597 z"
       id="path4557-1"
       inkscape:connector-curvature="0" />
    <path
       style="fill:#000000;fill-opacity:1;fill-rule:evenodd;stroke:#000000;stroke-width:0.68839669px;stroke-linecap:butt;stroke-linejoin:miter;stroke-opacity:1"
       d="m 252.96488,481.34337 -7.80769,3.68387 3.68389,-7.80767 z"
       id="path4557-4"
       inkscape:connector-curvature="0" />
    <path
       style="fill:#000000;fill-opacity:1;fill-rule:evenodd;stroke:#000000;stroke-width:0.41303802px;stroke-linecap:butt;stroke-linejoin:miter;stroke-opacity:1"
       d="m 381.88317,388.26841 -3.72986,-3.59433 5.1642,0.40265 z"
       id="path4557-5-7"
       inkscape:connector-curvature="0" />
    <path
       style="fill:none;fill-rule:evenodd;stroke:#000000;stroke-width:0.60000002;stroke-linecap:butt;stroke-linejoin:miter;stroke-miterlimit:4;stroke-dasharray:none;stroke-opacity:1"
       d="m 382.60034,386.67257 22.80315,10.24774"
       id="path4610-1"
       inkscape:connector-curvature="0" />
    <path
       style="fill:#000000;fill-opacity:1;fill-rule:evenodd;stroke:#000000;stroke-width:0.41303802px;stroke-linecap:butt;stroke-linejoin:miter;stroke-opacity:1"
       d="m 351.67099,350.17622 -0.68577,5.13427 -2.73522,-4.39882 z"
       id="path4557-5-9"
       inkscape:connector-curvature="0" />
    <path
       style="fill:none;fill-rule:evenodd;stroke:#000000;stroke-width:0.60000002;stroke-linecap:butt;stroke-linejoin:miter;stroke-miterlimit:4;stroke-dasharray:none;stroke-opacity:1"
       d="M 349.96049,350.54394 344.706,326.10238"
       id="path4610-2"
       inkscape:connector-curvature="0" />
    <path
       style="fill:#000000;fill-opacity:1;fill-rule:evenodd;stroke:#000000;stroke-width:0.41303802px;stroke-linecap:butt;stroke-linejoin:miter;stroke-opacity:1"
       d="m 320.44446,386.62719 1.20035,5.03887 -4.13035,-3.1259 z"
       id="path4557-5-8"
       inkscape:connector-curvature="0" />
    <path
       style="fill:none;fill-rule:evenodd;stroke:#000000;stroke-width:0.5;stroke-linecap:butt;stroke-linejoin:miter;stroke-miterlimit:4;stroke-dasharray:none;stroke-opacity:1"
       d="m 318.97946,387.58367 c -8.04359,-9.81906 -17.53399,-17.13427 -30.57648,-18.3022"
       id="path4610-7"
       inkscape:connector-curvature="0"
       sodipodi:nodetypes="cc" />
    <path
       style="fill:#000000;fill-opacity:1;fill-rule:evenodd;stroke:#000000;stroke-width:0.41303802px;stroke-linecap:butt;stroke-linejoin:miter;stroke-opacity:1"
       d="m 312.45548,457.50691 3.76646,-3.55596 -5.16805,0.34974 z"
       id="path4557-5-8-7"
       inkscape:connector-curvature="0" />
    <path
       style="fill:none;fill-rule:evenodd;stroke:#000000;stroke-width:0.5;stroke-linecap:butt;stroke-linejoin:miter;stroke-miterlimit:4;stroke-dasharray:none;stroke-opacity:1"
       d="m 311.75469,455.9038 c -12.1103,3.80184 -25.25647,5.47591 -36.80437,-0.69796"
       id="path4610-7-1"
       inkscape:connector-curvature="0"
       sodipodi:nodetypes="cc" />
    <text
       sodipodi:linespacing="125%"
       id="text4730"
       y="379.116"
       x="400.99112"
       style="font-style:normal;font-weight:normal;font-size:15px;line-height:125%;font-family:sans-serif;text-align:center;letter-spacing:0px;word-spacing:0px;text-anchor:middle;fill:#000000;fill-opacity:1;stroke:none;stroke-width:1px;stroke-linecap:butt;stroke-linejoin:miter;stroke-opacity:1"
       xml:space="preserve"><tspan
         style="font-size:7.5px"
         y="379.116"
         x="400.99112"
         id="tspan4732"
         sodipodi:role="line">$\rm{d}r$</tspan></text>
    <text
       inkscape:transform-center-x="0.82128235"
       sodipodi:linespacing="125%"
       id="text4730-3"
       y="321.96219"
       x="342.63266"
       style="font-style:normal;font-weight:normal;font-size:15px;line-height:125%;font-family:sans-serif;text-align:center;letter-spacing:0px;word-spacing:0px;text-anchor:middle;fill:#000000;fill-opacity:1;stroke:none;stroke-width:1px;stroke-linecap:butt;stroke-linejoin:miter;stroke-opacity:1"
       xml:space="preserve"><tspan
         style="font-size:7.5px"
         y="321.96219"
         x="342.63266"
         id="tspan4732-1"
         sodipodi:role="line">$r\sin{\theta}\rm{d}\phi$</tspan></text>
    <text
       sodipodi:linespacing="125%"
       id="text4730-9"
       y="417.68243"
       x="315.96826"
       style="font-style:normal;font-weight:normal;font-size:15px;line-height:125%;font-family:sans-serif;text-align:center;letter-spacing:0px;word-spacing:0px;text-anchor:middle;fill:#000000;fill-opacity:1;stroke:none;stroke-width:1px;stroke-linecap:butt;stroke-linejoin:miter;stroke-opacity:1"
       xml:space="preserve"><tspan
         style="font-size:7.5px"
         y="417.68243"
         x="315.96826"
         id="tspan4732-2"
         sodipodi:role="line">$\rm{d}\theta$</tspan></text>
    <path
       inkscape:connector-curvature="0"
       id="path4718"
       d="M 360.00001,472.36219 288.40298,442.25146"
       style="fill:none;fill-rule:evenodd;stroke:#000000;stroke-width:0.5;stroke-linecap:butt;stroke-linejoin:miter;stroke-miterlimit:4;stroke-dasharray:none;stroke-opacity:1" />
    <path
       inkscape:connector-curvature="0"
       id="path4720"
       d="M 383.08557,461.54665 288.40298,441.78147"
       style="fill:none;fill-rule:evenodd;stroke:#000000;stroke-width:0.5;stroke-linecap:butt;stroke-linejoin:miter;stroke-miterlimit:4;stroke-dasharray:none;stroke-opacity:1" />
    <text
       xml:space="preserve"
       style="font-style:normal;font-weight:normal;font-size:15px;line-height:125%;font-family:sans-serif;text-align:center;letter-spacing:0px;word-spacing:0px;text-anchor:middle;fill:#000000;fill-opacity:1;stroke:none;stroke-width:1px;stroke-linecap:butt;stroke-linejoin:miter;stroke-opacity:1"
       x="297.28409"
       y="469.0126"
       id="text4730-8"
       sodipodi:linespacing="125%"><tspan
         sodipodi:role="line"
         id="tspan4732-9"
         x="297.28409"
         y="469.0126"
         style="font-size:7.5px">$\phi$</tspan></text>
    <text
       inkscape:transform-center-x="0.82128235"
       sodipodi:linespacing="125%"
       id="text4730-3-7"
       y="405.59973"
       x="438.78076"
       style="font-style:normal;font-weight:normal;font-size:15px;line-height:125%;font-family:sans-serif;text-align:center;letter-spacing:0px;word-spacing:0px;text-anchor:middle;fill:#000000;fill-opacity:1;stroke:none;stroke-width:1px;stroke-linecap:butt;stroke-linejoin:miter;stroke-opacity:1"
       xml:space="preserve"><tspan
         style="font-size:7.5px"
         y="405.59973"
         x="438.78076"
         id="tspan4732-1-1"
         sodipodi:role="line">$r\sin{\theta+\rm{d}\theta}\rm{d}\phi$</tspan></text>
    <text
       sodipodi:linespacing="125%"
       id="text4730-4"
       y="415.42395"
       x="345.53439"
       style="font-style:normal;font-weight:normal;font-size:15px;line-height:125%;font-family:sans-serif;text-align:center;letter-spacing:0px;word-spacing:0px;text-anchor:middle;fill:#000000;fill-opacity:1;stroke:none;stroke-width:1px;stroke-linecap:butt;stroke-linejoin:miter;stroke-opacity:1"
       xml:space="preserve"><tspan
         style="font-size:7.5px"
         y="415.42395"
         x="345.53439"
         id="tspan4732-5"
         sodipodi:role="line">$r$</tspan></text>
    <text
       sodipodi:linespacing="125%"
       id="text4730-7"
       y="385.99564"
       x="298.33273"
       style="font-style:normal;font-weight:normal;font-size:15px;line-height:125%;font-family:sans-serif;text-align:center;letter-spacing:0px;word-spacing:0px;text-anchor:middle;fill:#000000;fill-opacity:1;stroke:none;stroke-width:1px;stroke-linecap:butt;stroke-linejoin:miter;stroke-opacity:1"
       xml:space="preserve"><tspan
         style="font-size:7.5px"
         y="385.99564"
         x="298.33273"
         id="tspan4732-14"
         sodipodi:role="line">$\theta$</tspan></text>
    <path
       style="opacity:1;fill:#000000;fill-opacity:1;stroke:none;stroke-width:0.5;stroke-miterlimit:4;stroke-dasharray:none;stroke-dashoffset:0;stroke-opacity:1"
       d="m 359.00792,385.65018 c -0.89412,-2.72722 -4.12859,-11.18274 -5.29333,-13.83778 -0.37353,-0.85146 -0.9024,-2.08936 -1.11842,-2.61783 -0.19165,-0.46884 -2.60138,-5.56499 -2.88701,-6.1055 -0.10362,-0.19609 -0.1884,-0.50192 -0.1884,-0.67963 0,-0.1777 1.17803,-1.87396 2.61784,-3.76945 l 2.61784,-3.44635 2.05779,-1.04999 c 2.37587,-1.2123 3.59107,-2.17528 4.10098,-3.24983 l 0.36035,-0.7594 1.66813,1.72907 c 2.15479,2.23351 3.38082,3.59589 4.07852,4.5321 0.3083,0.4137 0.68252,0.87567 0.8316,1.0266 0.14907,0.15093 0.6748,0.87499 1.16829,1.60901 0.49348,0.73402 0.95895,1.38078 1.03438,1.43724 0.18278,0.13682 4.62556,6.80255 5.11622,7.67614 0.21184,0.37716 0.50934,0.90629 0.66112,1.17585 0.15177,0.26955 0.32215,0.5363 0.37862,0.59276 0.12914,0.12914 0.56278,0.88856 1.11378,1.95054 0.23437,0.45171 0.47232,0.86748 0.52878,0.92395 0.35244,0.35244 1.23206,2.33834 1.09286,2.46734 -0.19447,0.18024 -18.33749,13.39866 -18.64777,13.58617 -0.11926,0.0721 -0.66087,-1.26542 -1.29217,-3.19101 z"
       id="path4858"
       inkscape:connector-curvature="0" />
    <path
       style="opacity:1;fill:#000000;fill-opacity:1;stroke:none;stroke-width:0.5;stroke-miterlimit:4;stroke-dasharray:none;stroke-dashoffset:0;stroke-opacity:1"
       d="m 348.64068,360.93041 c -0.1618,-0.31054 -0.56638,-1.0728 -0.89906,-1.69389 -1.0052,-1.87664 -1.01735,-1.79392 0.30171,-2.05385 1.15223,-0.22706 4.35455,-1.0876 5.07246,-1.36309 0.20242,-0.0777 -0.6185,1.16753 -1.82428,2.76712 -1.20578,1.59959 -2.22929,2.90834 -2.27448,2.90834 -0.0452,0 -0.21454,-0.25408 -0.37635,-0.56463 z"
       id="path4860"
       inkscape:connector-curvature="0" />
    <path
       style="opacity:1;fill:#000000;fill-opacity:1;stroke:none;stroke-width:0.5;stroke-miterlimit:4;stroke-dasharray:none;stroke-dashoffset:0;stroke-opacity:1"
       d="m 362.3533,388.8498 c 0.11292,-0.1124 4.02715,-2.98005 8.69827,-6.37256 4.89315,-3.55376 8.61355,-6.12193 8.77746,-6.05903 0.15647,0.06 0.2845,0.28408 0.2845,0.49785 0,0.21377 0.0693,0.38939 0.15399,0.39027 0.18439,0.002 0.66729,0.99619 0.66729,1.37392 0,0.14687 0.0699,0.26704 0.15533,0.26704 0.15238,0 0.66595,1.42791 0.66595,1.85156 0,0.37769 -5.27347,3.66724 -7.07333,4.4123 -2.32828,0.96379 -5.54177,2.004 -8.92244,2.88819 -1.53508,0.40149 -2.97585,0.78057 -3.2017,0.8424 -0.27287,0.0747 -0.34176,0.0439 -0.20532,-0.0919 z"
       id="path4862"
       inkscape:connector-curvature="0" />
    <path
       style="opacity:1;fill:#000000;fill-opacity:1;stroke:none;stroke-width:0.5;stroke-miterlimit:4;stroke-dasharray:none;stroke-dashoffset:0;stroke-opacity:1"
       d="m 396.45685,361.58444 c -0.80721,-1.76317 -2.43345,-4.54653 -4.61084,-7.89158 -1.67823,-2.57821 -5.37706,-7.90672 -6.12856,-8.82878 -0.13806,-0.16939 -1.38623,-1.83249 -2.77371,-3.69577 -2.34178,-3.14483 -4.62583,-6.12381 -4.88014,-6.36494 -0.0596,-0.0565 -0.35136,-0.42604 -0.64846,-0.82128 -0.2971,-0.39525 -0.74576,-0.94961 -0.99703,-1.23193 -0.25126,-0.28231 -0.79263,-0.92907 -1.20303,-1.43724 -0.4104,-0.50817 -0.88554,-1.06254 -1.05585,-1.23192 -0.17031,-0.16939 -0.64393,-0.72487 -1.05247,-1.23439 -0.40855,-0.50952 -1.35197,-1.57205 -2.09648,-2.36119 l -1.35367,-1.43478 3.02126,-0.12368 c 5.46116,-0.22355 7.36747,-1.01692 9.3946,-3.90986 0.62156,-0.88702 1.19732,-1.61072 1.27948,-1.60821 0.0822,0.003 0.38035,0.18525 0.66267,0.40608 0.28232,0.22083 0.62109,0.40356 0.75284,0.40607 0.13175,0.003 0.27034,0.0777 0.30798,0.16715 0.0376,0.0894 0.66901,0.57448 1.40303,1.07793 0.73402,0.50344 1.38078,0.96546 1.43724,1.02671 0.0565,0.0612 0.88801,0.70801 1.84789,1.43724 0.95987,0.72924 1.863,1.43708 2.00696,1.57297 0.14396,0.13589 0.69833,0.59786 1.23193,1.0266 0.5336,0.42874 1.01637,0.82749 1.07284,0.88612 0.0565,0.0586 0.79546,0.70538 1.64222,1.43724 0.84676,0.73186 1.67849,1.46925 1.84829,1.63864 0.1698,0.16939 1.09389,0.99809 2.05355,1.84157 2.02828,1.78274 12.76853,12.44746 14.2478,14.1476 0.55276,0.6353 1.38848,1.57087 1.85715,2.07904 0.97798,1.06039 2.92267,3.60919 4.20914,5.51666 l 0.88188,1.30759 -0.58881,0.48359 c -2.13374,1.75245 -6.10664,3.98479 -7.09174,3.98479 -0.30602,0 -0.6135,0.0924 -0.68329,0.20532 -0.0698,0.11293 -0.43937,0.20532 -0.82128,0.20532 -0.38191,0 -0.74546,0.0826 -0.80788,0.18363 -0.0624,0.101 -0.46055,0.23605 -0.88473,0.30011 -0.42418,0.064 -1.14082,0.17194 -1.59252,0.23974 -0.45171,0.0678 -1.00607,0.20469 -1.23192,0.3042 -0.22586,0.0995 -0.78022,0.22969 -1.23193,0.28928 -0.4517,0.0596 -1.42184,0.20666 -2.15586,0.32683 -1.86094,0.30465 -3.98421,0.59183 -5.46707,0.73945 l -1.25798,0.12523 -0.5435,-1.18715 z"
       id="path4864"
       inkscape:connector-curvature="0" />
    <path
       style="opacity:1;fill:#000000;fill-opacity:1;stroke:none;stroke-width:0.5;stroke-miterlimit:4;stroke-dasharray:none;stroke-dashoffset:0;stroke-opacity:1"
       d="m 404.90838,362.17111 c 0.2554,-0.0491 0.62498,-0.0472 0.82129,0.004 0.1963,0.0514 -0.0127,0.0916 -0.46437,0.0893 -0.45171,-0.002 -0.61232,-0.0443 -0.35692,-0.0934 z"
       id="path4866"
       inkscape:connector-curvature="0" />
    <path
       style="opacity:1;fill:#000000;fill-opacity:1;stroke:none;stroke-width:0.5;stroke-miterlimit:4;stroke-dasharray:none;stroke-dashoffset:0;stroke-opacity:1"
       d="m 378.8684,374.4935 c -0.64227,-1.70306 -6.05242,-10.43922 -8.66358,-13.98968 -1.37035,-1.8633 -0.68122,-1.40663 0.92803,0.615 2.8151,3.53646 6.40653,8.68139 8.7269,12.50179 l 0.44355,0.73028 -0.60873,0.35959 -0.60874,0.35958 -0.21743,-0.57656 z"
       id="path4872"
       inkscape:connector-curvature="0" />
    <path
       style="opacity:1;fill:#000000;fill-opacity:1;stroke:none;stroke-width:0.5;stroke-miterlimit:4;stroke-dasharray:none;stroke-dashoffset:0;stroke-opacity:1"
       d=""
       id="path4874"
       inkscape:connector-curvature="0" />
    <path
       style="opacity:1;fill:#000000;fill-opacity:1;stroke:none;stroke-width:0.5;stroke-miterlimit:4;stroke-dasharray:none;stroke-dashoffset:0;stroke-opacity:1"
       d="m 359.96426,388.03273 c -0.12265,-0.31055 -0.52546,-1.44238 -0.89514,-2.51518 -2.13613,-6.1991 -5.20468,-13.84771 -7.63737,-19.03679 -1.23869,-2.64218 -1.71795,-3.87801 -1.6323,-4.20907 0.0667,-0.25776 1.2273,-1.94697 2.57915,-3.75379 l 2.4579,-3.28513 2.0131,-1.02661 c 1.902,-0.96994 3.71327,-2.43667 4.27721,-3.46359 0.18708,-0.34067 0.46009,-0.12358 2.43044,1.93264 1.22082,1.27403 2.70323,2.92504 3.29424,3.66891 2.46529,3.10294 6.95488,9.67801 8.98483,13.15843 0.62571,1.0728 1.33553,2.27392 1.57738,2.66917 0.78668,1.28565 1.4934,2.93147 1.32471,3.085 -0.16356,0.14887 -8.62247,6.32732 -14.97418,10.93727 -1.82129,1.32185 -3.37118,2.40337 -3.4442,2.40337 -0.073,0 -0.23311,-0.25408 -0.35577,-0.56463 z"
       id="path4876"
       inkscape:connector-curvature="0" />
    <path
       style="opacity:1;fill:#000000;fill-opacity:1;stroke:none;stroke-width:0.5;stroke-miterlimit:4;stroke-dasharray:none;stroke-dashoffset:0;stroke-opacity:1"
       d="m 361.53202,388.90105 c 0.81463,-0.66168 18.7977,-13.75368 18.9742,-13.81357 0.0995,-0.0338 0.65788,0.77211 1.24084,1.79082 l 1.05993,1.8522 -0.4459,0.98101 c -0.27921,0.61429 -0.48353,0.86588 -0.54655,0.67303 -0.33094,-1.01263 -1.71752,-3.87969 -1.94714,-4.02614 -0.0789,-0.0503 -1.18764,0.61876 -2.46385,1.48686 -2.60909,1.77474 -12.12796,8.65027 -14.03805,10.13975 -0.68548,0.53453 -1.47083,1.03436 -1.74523,1.11073 -0.48855,0.13597 -0.49038,0.13193 -0.0883,-0.19469 z"
       id="path4878"
       inkscape:connector-curvature="0" />
    <path
       style="opacity:1;fill:#000000;fill-opacity:1;stroke:none;stroke-width:0.5;stroke-miterlimit:4;stroke-dasharray:none;stroke-dashoffset:0;stroke-opacity:1"
       d="m 380.957,378.22382 c -0.49596,-1.07013 -1.00536,-1.94569 -1.132,-1.94569 -0.12664,0 -0.72183,0.33104 -1.32264,0.73565 -1.76968,1.19177 -1.43981,0.64893 0.38869,-0.63965 1.33485,-0.94069 1.71442,-1.1227 1.8666,-0.89506 1.73605,2.59698 2.01249,3.474 1.36667,4.33599 -0.23419,0.31258 -0.3721,0.12459 -1.16732,-1.59124 z"
       id="path4880"
       inkscape:connector-curvature="0" />
    <path
       style="opacity:1;fill:#000000;fill-opacity:1;stroke:none;stroke-width:0.5;stroke-miterlimit:4;stroke-dasharray:none;stroke-dashoffset:0;stroke-opacity:1"
       d="m 347.34483,359.75301 c -0.98487,-1.68274 -1.18668,-2.16418 -0.94588,-2.25658 0.16835,-0.0646 0.32111,-0.0922 0.33947,-0.0613 0.26259,0.44193 2.16638,4.26731 2.16638,4.35302 0,0.43939 -0.47229,-0.17675 -1.55997,-2.03514 z"
       id="path4882"
       inkscape:connector-curvature="0" />
    <path
       style="opacity:1;fill:#000000;fill-opacity:1;stroke:none;stroke-width:0.5;stroke-miterlimit:4;stroke-dasharray:none;stroke-dashoffset:0;stroke-opacity:1"
       d="m 349.97649,364.46783 c -0.66315,-1.33714 -0.82531,-1.84715 -0.67129,-2.11126 0.17675,-0.30308 0.20388,-0.28767 0.20932,0.11887 0.003,0.25691 0.33472,1.11937 0.73619,1.91658 0.40147,0.79721 0.70074,1.53708 0.66505,1.64416 -0.0357,0.10707 -0.45836,-0.59868 -0.93927,-1.56835 z"
       id="path4884"
       inkscape:connector-curvature="0" />
    <path
       style="opacity:1;fill:#000000;fill-opacity:1;stroke:none;stroke-width:0.5;stroke-miterlimit:4;stroke-dasharray:none;stroke-dashoffset:0;stroke-opacity:1"
       d="m 350.58472,365.70412 c -0.14227,-0.31225 -0.15518,-0.5133 -0.033,-0.5133 0.1105,0 0.20091,0.13859 0.20091,0.30798 0,0.16939 0.0924,0.30798 0.20532,0.30798 0.11293,0 0.20533,0.0924 0.20533,0.20532 0,0.38829 -0.34504,0.20463 -0.57861,-0.30798 z"
       id="path4886"
       inkscape:connector-curvature="0" />
    <path
       style="opacity:1;fill:#000000;fill-opacity:1;stroke:none;stroke-width:0.5;stroke-miterlimit:4;stroke-dasharray:none;stroke-dashoffset:0;stroke-opacity:1"
       d=""
       id="path4888"
       inkscape:connector-curvature="0" />
    <path
       style="opacity:1;fill:#000000;fill-opacity:1;stroke:none;stroke-width:0.5;stroke-miterlimit:4;stroke-dasharray:none;stroke-dashoffset:0;stroke-opacity:1"
       d=""
       id="path4890"
       inkscape:connector-curvature="0" />
    <path
       style="opacity:1;fill:#000000;fill-opacity:1;stroke:none;stroke-width:0.5;stroke-miterlimit:4;stroke-dasharray:none;stroke-dashoffset:0;stroke-opacity:1"
       d=""
       id="path4892"
       inkscape:connector-curvature="0" />
    <path
       style="opacity:1;fill:#000000;fill-opacity:1;stroke:none;stroke-width:0.5;stroke-miterlimit:4;stroke-dasharray:none;stroke-dashoffset:0;stroke-opacity:1"
       d=""
       id="path4894"
       inkscape:connector-curvature="0" />
    <path
       style="opacity:1;fill:#000000;fill-opacity:1;stroke:none;stroke-width:0.5;stroke-miterlimit:4;stroke-dasharray:none;stroke-dashoffset:0;stroke-opacity:1"
       d="m 372.39777,329.12426 c -3.82011,-3.8698 -4.07626,-4.17512 -3.49045,-4.16043 0.53229,0.0134 0.91228,0.32972 2.40445,2.00188 2.53439,2.84009 5.36921,6.20832 5.28259,6.27657 -0.0407,0.032 -1.92913,-1.82106 -4.19659,-4.11802 z"
       id="path4896"
       inkscape:connector-curvature="0" />
    <path
       style="opacity:1;fill:#000000;fill-opacity:1;stroke:none;stroke-width:0.5;stroke-miterlimit:4;stroke-dasharray:none;stroke-dashoffset:0;stroke-opacity:1"
       d="m 369.94098,326.94205 c -0.50988,-0.5915 -0.525,-0.82351 -0.0239,-0.36704 0.30053,0.27376 0.54641,0.52785 0.54641,0.56463 0,0.15508 -0.32414,0.0325 -0.52248,-0.19759 z"
       id="path4898"
       inkscape:connector-curvature="0" />
    <path
       style="opacity:1;fill:#000000;fill-opacity:1;stroke:none;stroke-width:0.5;stroke-miterlimit:4;stroke-dasharray:none;stroke-dashoffset:0;stroke-opacity:1"
       d="m 371.71236,328.29562 c -1.60032,-1.66847 -2.80475,-3.06856 -2.6765,-3.11131 0.12825,-0.0427 0.60301,0.27926 1.05502,0.71558 1.30721,1.26184 4.74536,5.2151 4.63315,5.32731 -0.0561,0.0561 -1.41135,-1.26311 -3.01167,-2.93158 z"
       id="path4900"
       inkscape:connector-curvature="0" />
    <path
       style="opacity:1;fill:#000000;fill-opacity:1;stroke:none;stroke-width:0.5;stroke-miterlimit:4;stroke-dasharray:none;stroke-dashoffset:0;stroke-opacity:1"
       d=""
       id="path4902"
       inkscape:connector-curvature="0" />
    <path
       style="opacity:1;fill:#000000;fill-opacity:1;stroke:none;stroke-width:0.5;stroke-miterlimit:4;stroke-dasharray:none;stroke-dashoffset:0;stroke-opacity:1"
       d="m 382.37205,319.41994 c 0,-0.92743 0.1032,-0.99263 0.74864,-0.47302 l 0.44064,0.35474 -0.59464,0.47759 -0.59464,0.47759 0,-0.8369 z"
       id="path4904"
       inkscape:connector-curvature="0" />
    <path
       style="opacity:1;fill:#000000;fill-opacity:1;stroke:none;stroke-width:0.5;stroke-miterlimit:4;stroke-dasharray:none;stroke-dashoffset:0;stroke-opacity:1"
       d=""
       id="path4906"
       inkscape:connector-curvature="0" />
    <path
       style="opacity:1;fill:#000000;fill-opacity:1;stroke:none;stroke-width:0.5;stroke-miterlimit:4;stroke-dasharray:none;stroke-dashoffset:0;stroke-opacity:1"
       d=""
       id="path4908"
       inkscape:connector-curvature="0" />
    <path
       style="opacity:1;fill:#000000;fill-opacity:1;stroke:none;stroke-width:0.5;stroke-miterlimit:4;stroke-dasharray:none;stroke-dashoffset:0;stroke-opacity:1"
       d=""
       id="path4910"
       inkscape:connector-curvature="0" />
    <path
       style="opacity:1;fill:#000000;fill-opacity:1;stroke:none;stroke-width:0.5;stroke-miterlimit:4;stroke-dasharray:none;stroke-dashoffset:0;stroke-opacity:1"
       d="m 406.80178,339.2445 c -7.20251,-7.15094 -12.05984,-11.57032 -16.57541,-15.08095 -1.3829,-1.07513 -2.47176,-1.9974 -2.41967,-2.04948 0.1373,-0.13731 4.43992,2.98699 7.68418,5.57977 4.63656,3.7055 9.12582,7.89462 13.24094,12.3557 2.74874,2.97983 5.34602,6.02848 5.23258,6.14193 -0.0454,0.0454 -3.26854,-3.08077 -7.16262,-6.94697 z"
       id="path4912"
       inkscape:connector-curvature="0" />
    <path
       style="opacity:1;fill:#000000;fill-opacity:1;stroke:none;stroke-width:0.5;stroke-miterlimit:4;stroke-dasharray:none;stroke-dashoffset:0;stroke-opacity:1"
       d=""
       id="path4914"
       inkscape:connector-curvature="0" />
    <path
       style="opacity:1;fill:#000000;fill-opacity:1;stroke:none;stroke-width:0.5;stroke-miterlimit:4;stroke-dasharray:none;stroke-dashoffset:0;stroke-opacity:1"
       d=""
       id="path4916"
       inkscape:connector-curvature="0" />
    <path
       style="opacity:1;fill:#000000;fill-opacity:1;stroke:none;stroke-width:0.5;stroke-miterlimit:4;stroke-dasharray:none;stroke-dashoffset:0;stroke-opacity:1"
       d=""
       id="path4918"
       inkscape:connector-curvature="0" />
    <path
       style="opacity:1;fill:#000000;fill-opacity:1;stroke:none;stroke-width:0.5;stroke-miterlimit:4;stroke-dasharray:none;stroke-dashoffset:0;stroke-opacity:1"
       d="m 396.3884,363.0027 c -0.13939,-0.0564 -0.93577,-1.45809 -1.76973,-3.11493 -0.83396,-1.65684 -2.22802,-4.24536 -3.09791,-5.75227 -0.86988,-1.50691 -1.54025,-2.78119 -1.48971,-2.83174 0.19827,-0.19827 4.93097,7.46928 6.123,9.92002 0.79643,1.63741 0.83317,1.67717 1.47357,1.59447 4.36996,-0.56432 8.60096,-1.18465 9.17758,-1.34558 0.39525,-0.11031 1.36539,-0.3244 2.15587,-0.47576 0.79048,-0.15136 2.02271,-0.43198 2.73829,-0.62359 0.71557,-0.19161 1.3455,-0.30392 1.39984,-0.24958 0.15525,0.15525 -3.05904,1.33975 -5.13494,1.89227 -2.8457,0.75742 -5.69356,1.12081 -8.65326,1.10418 -1.46804,-0.008 -2.78321,-0.0611 -2.9226,-0.11749 z m 9.24012,-0.82105 c -0.13901,-0.0562 -0.41619,-0.0597 -0.61596,-0.008 -0.19977,0.0521 -0.086,0.0981 0.25274,0.10226 0.33878,0.004 0.50223,-0.0384 0.36322,-0.0947 z"
       id="path4920"
       inkscape:connector-curvature="0" />
    <path
       style="opacity:1;fill:#000000;fill-opacity:1;stroke:none;stroke-width:0.5;stroke-miterlimit:4;stroke-dasharray:none;stroke-dashoffset:0;stroke-opacity:1"
       d=""
       id="path4922"
       inkscape:connector-curvature="0" />
    <path
       style="opacity:1;fill:#000000;fill-opacity:1;stroke:none;stroke-width:0.5;stroke-miterlimit:4;stroke-dasharray:none;stroke-dashoffset:0;stroke-opacity:1"
       d=""
       id="path4924"
       inkscape:connector-curvature="0" />
    <path
       style="opacity:1;fill:#000000;fill-opacity:1;stroke:none;stroke-width:0.5;stroke-miterlimit:4;stroke-dasharray:none;stroke-dashoffset:0;stroke-opacity:1"
       d=""
       id="path4926"
       inkscape:connector-curvature="0" />
    <path
       style="opacity:1;fill:#000000;fill-opacity:1;stroke:none;stroke-width:0.5;stroke-miterlimit:4;stroke-dasharray:none;stroke-dashoffset:0;stroke-opacity:1"
       d=""
       id="path4928"
       inkscape:connector-curvature="0" />
    <path
       style="opacity:1;fill:#000000;fill-opacity:1;stroke:none;stroke-width:0.5;stroke-miterlimit:4;stroke-dasharray:none;stroke-dashoffset:0;stroke-opacity:1"
       d=""
       id="path4930"
       inkscape:connector-curvature="0" />
    <text
       xml:space="preserve"
       style="font-style:normal;font-weight:normal;font-size:15px;line-height:125%;font-family:sans-serif;text-align:center;letter-spacing:0px;word-spacing:0px;text-anchor:middle;fill:#000000;fill-opacity:1;stroke:none;stroke-width:1px;stroke-linecap:butt;stroke-linejoin:miter;stroke-opacity:1"
       x="387.31818"
       y="377.87296"
       id="text4214"
       sodipodi:linespacing="125%"><tspan
         sodipodi:role="line"
         id="tspan4216"
         x="387.31818"
         y="377.87296" /></text>
    <path
       style="opacity:1;fill:#000000;fill-opacity:1;stroke:none;stroke-width:0.5;stroke-miterlimit:4;stroke-dasharray:none;stroke-dashoffset:0;stroke-opacity:1"
       d="m 145.33643,68.539049 -0.36296,-0.09589 0.41639,-0.106966 c 0.44236,-0.113638 0.67004,-0.02259 0.44503,0.177973 -0.0745,0.06643 -0.29883,0.07763 -0.49846,0.02489 z"
       id="path4218"
       inkscape:connector-curvature="0"
       transform="translate(207.633,287.28029)" />
    <path
       style="opacity:1;fill:#000000;fill-opacity:1;stroke:none;stroke-width:0.5;stroke-miterlimit:4;stroke-dasharray:none;stroke-dashoffset:0;stroke-opacity:1"
       d="m 152.33603,100.80019 c -0.16217,-0.37897 -0.62899,-1.654528 -1.03739,-2.834567 -1.38169,-3.99231 -3.88684,-10.503317 -5.37499,-13.969851 -1.23072,-2.866886 -2.35769,-5.288532 -2.45544,-5.276299 -0.25489,0.0319 -0.36243,-0.03986 -0.2074,-0.138404 0.12636,-0.08032 -0.0243,-0.526421 -0.54444,-1.611889 -0.39554,-0.825458 -0.71916,-1.61535 -0.71916,-1.755316 0,-0.283265 1.0167,-1.75466 3.46218,-5.010532 l 1.63571,-2.177753 1.6305,-0.871102 c 2.8088,-1.500607 3.63779,-2.120098 4.46782,-3.338726 l 0.52522,-0.771117 1.15171,1.18382 c 4.02983,4.142201 5.76567,6.342183 10.02946,12.711248 1.54894,2.313731 2.67833,4.149354 5.29418,8.604714 0.31255,0.532349 0.68728,1.283674 0.83273,1.669611 l 0.26444,0.701701 -1.97971,1.445911 c -1.77998,1.300033 -14.35061,10.441227 -16.00859,11.641231 l -0.67199,0.48637 -0.29484,-0.68905 z"
       id="path4220"
       inkscape:connector-curvature="0"
       transform="translate(207.633,287.28029)" />
    <path
       style="opacity:1;fill:#000000;fill-opacity:1;stroke:none;stroke-width:0.5;stroke-miterlimit:4;stroke-dasharray:none;stroke-dashoffset:0;stroke-opacity:1"
       d="m 144.09116,80.695103 c -0.38964,-0.819714 -0.73162,-1.539389 -0.75996,-1.599277 -0.0283,-0.05989 0.006,-0.108887 0.0766,-0.108887 0.152,0 1.56648,3.023812 1.46292,3.12737 -0.0391,0.03915 -0.38997,-0.599492 -0.7796,-1.419206 z"
       id="path4222"
       inkscape:connector-curvature="0"
       transform="translate(207.633,287.28029)" />
    <path
       style="opacity:1;fill:#000000;fill-opacity:1;stroke:none;stroke-width:0.5;stroke-miterlimit:4;stroke-dasharray:none;stroke-dashoffset:0;stroke-opacity:1"
       d="m 152.33608,100.79859 c -0.16138,-0.37809 -0.6007,-1.569432 -0.97626,-2.64742 -2.72235,-7.81397 -7.51663,-19.493832 -7.96787,-19.41137 -0.0884,0.01615 -0.14106,-0.08681 -0.11708,-0.228791 0.024,-0.141985 -0.25369,-0.885724 -0.61703,-1.652754 -0.36335,-0.76703 -0.66063,-1.505687 -0.66063,-1.641459 0,-0.297641 0.57768,-1.138321 3.17402,-4.619031 l 1.97999,-2.654423 1.45184,-0.743153 c 2.72673,-1.395739 4.13438,-2.481079 4.74189,-3.656149 l 0.29034,-0.561581 0.51325,0.48899 c 1.08317,1.031962 4.106,4.350202 5.2173,5.727167 2.06307,2.556267 6.70187,9.285211 8.44934,12.256443 1.88361,3.202722 3.09203,5.381137 3.27072,5.896127 l 0.19588,0.564542 -1.46688,1.079101 c -1.90122,1.398621 -16.1356,11.754631 -16.7305,12.172041 l -0.45491,0.31917 -0.29341,-0.68745 z"
       id="path4224"
       inkscape:connector-curvature="0"
       transform="translate(207.633,287.28029)" />
    <path
       style="opacity:1;fill:#000000;fill-opacity:1;stroke:none;stroke-width:0.5;stroke-miterlimit:4;stroke-dasharray:none;stroke-dashoffset:0;stroke-opacity:1"
       d="m 152.33477,100.80076 c -0.16312,-0.37929 -0.72122,-1.898265 -1.24022,-3.375508 -2.72803,-7.76486 -7.1293,-18.410058 -7.70263,-18.630063 -0.12559,-0.04819 -0.19393,-0.17733 -0.15185,-0.286969 0.0421,-0.109638 -0.22036,-0.838934 -0.58319,-1.620656 -0.36282,-0.781723 -0.65967,-1.532183 -0.65967,-1.667688 0,-0.306858 0.93754,-1.672857 3.33676,-4.861674 1.81158,-2.407766 1.89234,-2.491489 2.85705,-2.961841 2.71734,-1.324859 4.37649,-2.550436 5.08165,-3.753692 l 0.37923,-0.647114 0.64938,0.627625 c 2.44624,2.364288 5.37197,5.810852 7.68094,9.048273 3.74757,5.254503 8.30372,12.585563 9.06006,14.578066 l 0.25111,0.661511 -1.69046,1.246008 c -2.25354,1.661048 -14.79086,10.784331 -16.00946,11.649922 l -0.96211,0.68341 -0.29659,-0.68961 z"
       id="path4226"
       inkscape:connector-curvature="0"
       transform="translate(207.633,287.28029)" />
    <path
       style="opacity:1;fill:#000000;fill-opacity:1;stroke:none;stroke-width:0.5;stroke-miterlimit:4;stroke-dasharray:none;stroke-dashoffset:0;stroke-opacity:1"
       d=""
       id="path4228"
       inkscape:connector-curvature="0"
       transform="translate(207.633,287.28029)" />
    <path
       style="opacity:1;fill:#000000;fill-opacity:1;stroke:none;stroke-width:0.5;stroke-miterlimit:4;stroke-dasharray:none;stroke-dashoffset:0;stroke-opacity:1"
       d=""
       id="path4230"
       inkscape:connector-curvature="0"
       transform="translate(207.633,287.28029)" />
    <path
       style="opacity:1;fill:#000000;fill-opacity:1;stroke:none;stroke-width:0.5;stroke-miterlimit:4;stroke-dasharray:none;stroke-dashoffset:0;stroke-opacity:1"
       d=""
       id="path4232"
       inkscape:connector-curvature="0"
       transform="translate(207.633,287.28029)" />
    <path
       style="opacity:1;fill:#000000;fill-opacity:1;stroke:none;stroke-width:0.5;stroke-miterlimit:4;stroke-dasharray:none;stroke-dashoffset:0;stroke-opacity:1"
       d="m 152.37403,100.95181 c -0.12671,-0.30266 -0.61224,-1.628282 -1.07896,-2.945823 -2.9749,-8.397995 -7.24042,-18.774668 -7.88704,-19.186717 -0.0821,-0.05229 -0.1663,-0.24829 -0.1872,-0.43555 -0.0209,-0.187261 -0.30477,-0.918641 -0.63081,-1.625287 -0.32605,-0.706646 -0.59281,-1.393511 -0.59281,-1.526365 0,-0.32436 0.67547,-1.320269 3.08915,-4.554594 l 2.02978,-2.719897 1.68502,-0.885031 c 2.65364,-1.393783 3.98904,-2.452404 4.61115,-3.65543 l 0.2414,-0.466811 1.8931,1.956903 c 2.40709,2.488201 4.25345,4.705383 6.28433,7.54647 4.68099,6.548437 9.8636,15.120631 9.3919,15.534498 -0.2343,0.205566 -18.12654,13.211294 -18.44156,13.405024 -0.11738,0.0722 -0.25475,-0.0766 -0.40745,-0.44139 z"
       id="path4234"
       inkscape:connector-curvature="0"
       transform="translate(207.633,287.28029)" />
    <path
       style="opacity:1;fill:#000000;fill-opacity:1;stroke:none;stroke-width:0.5;stroke-miterlimit:4;stroke-dasharray:none;stroke-dashoffset:0;stroke-opacity:1"
       d="m 161.25332,71.440506 c -0.64215,-0.970357 -0.42295,-0.971054 0.34527,-0.0011 0.31045,0.391976 0.39037,0.57872 0.24767,0.57872 -0.11588,0 -0.3827,-0.25993 -0.59294,-0.577621 z"
       id="path4259"
       inkscape:connector-curvature="0"
       transform="translate(207.633,287.28029)" />
    <path
       style="opacity:1;fill:#000000;fill-opacity:1;stroke:none;stroke-width:0.5;stroke-miterlimit:4;stroke-dasharray:none;stroke-dashoffset:0;stroke-opacity:1"
       d=""
       id="path4261"
       inkscape:connector-curvature="0"
       transform="translate(207.633,287.28029)" />
    <path
       style="opacity:1;fill:#000000;fill-opacity:1;stroke:none;stroke-width:0.5;stroke-miterlimit:4;stroke-dasharray:none;stroke-dashoffset:0;stroke-opacity:1"
       d=""
       id="path4265"
       inkscape:connector-curvature="0"
       transform="translate(207.633,287.28029)" />
    <path
       style="opacity:1;fill:#000000;fill-opacity:1;stroke:none;stroke-width:0.5;stroke-miterlimit:4;stroke-dasharray:none;stroke-dashoffset:0;stroke-opacity:1"
       d=""
       id="path4267"
       inkscape:connector-curvature="0"
       transform="translate(207.633,287.28029)" />
    <path
       style="opacity:1;fill:#000000;fill-opacity:1;stroke:none;stroke-width:0.5;stroke-miterlimit:4;stroke-dasharray:none;stroke-dashoffset:0;stroke-opacity:1"
       d="m 164.37966,41.323286 c -1.77002,-1.790343 -3.21822,-3.325664 -3.21822,-3.411826 0,-0.363794 0.51377,-0.102755 1.33472,0.678149 1.02727,0.977169 5.25932,5.831258 5.16565,5.924925 -0.0352,0.03516 -1.51212,-1.400906 -3.28215,-3.191248 z"
       id="path4275"
       inkscape:connector-curvature="0"
       transform="translate(207.633,287.28029)" />
    <path
       style="opacity:1;fill:#000000;fill-opacity:1;stroke:none;stroke-width:0.5;stroke-miterlimit:4;stroke-dasharray:none;stroke-dashoffset:0;stroke-opacity:1"
       d="m 160.72589,37.972579 c -0.31631,-0.33669 -0.32076,-0.362877 -0.0616,-0.361826 0.15538,6.3e-4 0.35387,0.161727 0.4472,0.362959 0.21469,0.462874 0.0499,0.46239 -0.38559,-0.0011 z"
       id="path4277"
       inkscape:connector-curvature="0"
       transform="translate(207.633,287.28029)" />
    <path
       style="opacity:1;fill:#000000;fill-opacity:1;stroke:none;stroke-width:0.5;stroke-miterlimit:4;stroke-dasharray:none;stroke-dashoffset:0;stroke-opacity:1"
       d=""
       id="path4279"
       inkscape:connector-curvature="0"
       transform="translate(207.633,287.28029)" />
    <path
       style="opacity:1;fill:#000000;fill-opacity:1;stroke:none;stroke-width:0.5;stroke-miterlimit:4;stroke-dasharray:none;stroke-dashoffset:0;stroke-opacity:1"
       d=""
       id="path4281"
       inkscape:connector-curvature="0"
       transform="translate(207.633,287.28029)" />
    <path
       style="opacity:1;fill:#000000;fill-opacity:1;stroke:none;stroke-width:0.5;stroke-miterlimit:4;stroke-dasharray:none;stroke-dashoffset:0;stroke-opacity:1"
       d="m 176.44201,32.511492 c -0.25952,-0.166198 -0.47185,-0.368609 -0.47185,-0.449803 0,-0.134035 0.27389,0.0077 1.08489,0.561362 0.48417,0.330546 -0.0842,0.227116 -0.61304,-0.111559 z"
       id="path4283"
       inkscape:connector-curvature="0"
       transform="translate(207.633,287.28029)" />
    <path
       style="opacity:1;fill:#000000;fill-opacity:1;stroke:none;stroke-width:0.5;stroke-miterlimit:4;stroke-dasharray:none;stroke-dashoffset:0;stroke-opacity:1"
       d=""
       id="path4301"
       inkscape:connector-curvature="0"
       transform="translate(207.633,287.28029)" />
    <path
       style="opacity:1;fill:#000000;fill-opacity:1;stroke:none;stroke-width:0.5;stroke-miterlimit:4;stroke-dasharray:none;stroke-dashoffset:0;stroke-opacity:1"
       d=""
       id="path4303"
       inkscape:connector-curvature="0"
       transform="translate(207.633,287.28029)" />
    <path
       style="opacity:1;fill:#000000;fill-opacity:1;stroke:none;stroke-width:0.5;stroke-miterlimit:4;stroke-dasharray:none;stroke-dashoffset:0;stroke-opacity:1"
       d=""
       id="path4309"
       inkscape:connector-curvature="0"
       transform="translate(207.633,287.28029)" />
    <path
       style="fill:none;fill-rule:evenodd;stroke:#000000;stroke-width:1.20000005;stroke-linecap:butt;stroke-linejoin:miter;stroke-miterlimit:4;stroke-dasharray:none;stroke-opacity:1"
       d="m 345.51127,357.35762 21.56496,-32.88259"
       id="path4321"
       inkscape:connector-curvature="0" />
    <path
       style="fill:none;fill-rule:evenodd;stroke:#000000;stroke-width:1.20000005;stroke-linecap:butt;stroke-linejoin:miter;stroke-miterlimit:4;stroke-dasharray:none;stroke-opacity:1"
       d="M 349.63022,362.49305 372.7946,329.77119"
       id="path4323"
       inkscape:connector-curvature="0" />
    <path
       style="fill:none;fill-rule:evenodd;stroke:#000000;stroke-width:1.20000005;stroke-linecap:butt;stroke-linejoin:miter;stroke-miterlimit:4;stroke-dasharray:none;stroke-opacity:1"
       d="m 383.90472,380.07837 37.38225,-24.62186"
       id="path4321-3"
       inkscape:connector-curvature="0" />
    <path
       style="fill:none;fill-rule:evenodd;stroke:#000000;stroke-width:1.20000005;stroke-linecap:butt;stroke-linejoin:miter;stroke-miterlimit:4;stroke-dasharray:none;stroke-opacity:1"
       d="m 360.45475,388.73391 36.33036,-26.45815"
       id="path4323-8"
       inkscape:connector-curvature="0" />
  </g>
</svg>
