<?xml version="1.0" encoding="UTF-8" standalone="no"?>
<!-- Created with Inkscape (http://www.inkscape.org/) -->

<svg
   xmlns:dc="http://purl.org/dc/elements/1.1/"
   xmlns:cc="http://creativecommons.org/ns#"
   xmlns:rdf="http://www.w3.org/1999/02/22-rdf-syntax-ns#"
   xmlns:svg="http://www.w3.org/2000/svg"
   xmlns="http://www.w3.org/2000/svg"
   xmlns:sodipodi="http://sodipodi.sourceforge.net/DTD/sodipodi-0.dtd"
   xmlns:inkscape="http://www.inkscape.org/namespaces/inkscape"
   width="126.44316mm"
   height="125.62482mm"
   viewBox="0 0 448.02694 445.12732"
   id="svg2"
   version="1.1"
   inkscape:version="0.91 r13725"
   sodipodi:docname="x1x3nomogramme.svg">
  <defs
     id="defs4">
    <clipPath
       id="clipPath3701"
       clipPathUnits="userSpaceOnUse">
      <path
         inkscape:connector-curvature="0"
         id="path3703"
         d="m 0,0 595.22,0 0,842 L 0,842 0,0 Z" />
    </clipPath>
  </defs>
  <sodipodi:namedview
     id="base"
     pagecolor="#ffffff"
     bordercolor="#666666"
     borderopacity="1.0"
     inkscape:pageopacity="0.0"
     inkscape:pageshadow="2"
     inkscape:zoom="1.4"
     inkscape:cx="277.82251"
     inkscape:cy="116.40104"
     inkscape:document-units="px"
     inkscape:current-layer="layer1"
     showgrid="false"
     inkscape:window-width="824"
     inkscape:window-height="971"
     inkscape:window-x="840"
     inkscape:window-y="0"
     inkscape:window-maximized="0"
     fit-margin-top="0"
     fit-margin-left="0"
     fit-margin-right="0"
     fit-margin-bottom="0" />
  <metadata
     id="metadata7">
    <rdf:RDF>
      <cc:Work
         rdf:about="">
        <dc:format>image/svg+xml</dc:format>
        <dc:type
           rdf:resource="http://purl.org/dc/dcmitype/StillImage" />
        <dc:title></dc:title>
      </cc:Work>
    </rdf:RDF>
  </metadata>
  <g
     inkscape:label="Layer 1"
     inkscape:groupmode="layer"
     id="layer1"
     transform="translate(-12.826551,-294.30752)">
    <g
       transform="matrix(1.25,0,0,-1.25,66.13588,692.8715)"
       id="g4441">
      <path
         inkscape:connector-curvature="0"
         id="path4443"
         style="fill:none;stroke:#000000;stroke-width:0.44499999;stroke-linecap:round;stroke-linejoin:round;stroke-miterlimit:10;stroke-dasharray:none;stroke-opacity:1"
         d="M 0,0 314.16,0" />
    </g>
    <g
       transform="matrix(1.25,0,0,-1.25,66.13588,692.8715)"
       id="g4445">
      <path
         inkscape:connector-curvature="0"
         id="path4447"
         style="fill:none;stroke:#000000;stroke-width:0.44499999;stroke-linecap:round;stroke-linejoin:round;stroke-miterlimit:10;stroke-dasharray:none;stroke-opacity:1"
         d="M 0,0 0,-8.94" />
    </g>
    <g
       transform="matrix(1.25,0,0,-1.25,144.58588,692.8715)"
       id="g4449">
      <path
         inkscape:connector-curvature="0"
         id="path4451"
         style="fill:none;stroke:#000000;stroke-width:0.44499999;stroke-linecap:round;stroke-linejoin:round;stroke-miterlimit:10;stroke-dasharray:none;stroke-opacity:1"
         d="M 0,0 0,-8.94" />
    </g>
    <g
       transform="matrix(1.25,0,0,-1.25,223.11088,692.8715)"
       id="g4453">
      <path
         inkscape:connector-curvature="0"
         id="path4455"
         style="fill:none;stroke:#000000;stroke-width:0.44499999;stroke-linecap:round;stroke-linejoin:round;stroke-miterlimit:10;stroke-dasharray:none;stroke-opacity:1"
         d="M 0,0 0,-8.94" />
    </g>
    <g
       transform="matrix(1.25,0,0,-1.25,301.71088,692.8715)"
       id="g4457">
      <path
         inkscape:connector-curvature="0"
         id="path4459"
         style="fill:none;stroke:#000000;stroke-width:0.44499999;stroke-linecap:round;stroke-linejoin:round;stroke-miterlimit:10;stroke-dasharray:none;stroke-opacity:1"
         d="M 0,0 0,-8.94" />
    </g>
    <g
       transform="matrix(1.25,0,0,-1.25,380.23588,692.8715)"
       id="g4461">
      <path
         inkscape:connector-curvature="0"
         id="path4463"
         style="fill:none;stroke:#000000;stroke-width:0.44499999;stroke-linecap:round;stroke-linejoin:round;stroke-miterlimit:10;stroke-dasharray:none;stroke-opacity:1"
         d="M 0,0 0,-8.94" />
    </g>
    <g
       transform="matrix(1.25,0,0,-1.25,458.83588,692.8715)"
       id="g4465">
      <path
         inkscape:connector-curvature="0"
         id="path4467"
         style="fill:none;stroke:#000000;stroke-width:0.44499999;stroke-linecap:round;stroke-linejoin:round;stroke-miterlimit:10;stroke-dasharray:none;stroke-opacity:1"
         d="M 0,0 0,-8.94" />
    </g>
    <text
       id="text4469"
       style="font-variant:normal;font-weight:normal;font-stretch:normal;font-size:7.53125px;font-family:Verdana;-inkscape-font-specification:Verdana;writing-mode:lr-tb;fill:#000000;fill-opacity:1;fill-rule:nonzero;stroke:none"
       x="58.935879"
       y="715.2215">
      <tspan
         id="tspan4471"
         sodipodi:role="line"
         y="715.2215"
         x="58.935879 63.725754 68.515633">321</tspan>
    </text>
    <text
       id="text4473"
       style="font-variant:normal;font-weight:normal;font-stretch:normal;font-size:7.53125px;font-family:Verdana;-inkscape-font-specification:Verdana;writing-mode:lr-tb;fill:#000000;fill-opacity:1;fill-rule:nonzero;stroke:none"
       x="133.64088"
       y="715.2215">
      <tspan
         id="tspan4475"
         sodipodi:role="line"
         y="715.2215"
         x="133.64088 138.43076 143.22063 148.0105 150.75188">327.4</tspan>
    </text>
    <text
       id="text4477"
       style="font-variant:normal;font-weight:normal;font-stretch:normal;font-size:7.53125px;font-family:Verdana;-inkscape-font-specification:Verdana;writing-mode:lr-tb;fill:#000000;fill-opacity:1;fill-rule:nonzero;stroke:none"
       x="212.17963"
       y="715.2215">
      <tspan
         id="tspan4479"
         sodipodi:role="line"
         y="715.2215"
         x="212.17963 216.9695 221.75938 226.54926 229.29063">333.8</tspan>
    </text>
    <text
       id="text4481"
       style="font-variant:normal;font-weight:normal;font-stretch:normal;font-size:7.53125px;font-family:Verdana;-inkscape-font-specification:Verdana;writing-mode:lr-tb;fill:#000000;fill-opacity:1;fill-rule:nonzero;stroke:none"
       x="290.79214"
       y="715.2215">
      <tspan
         id="tspan4483"
         sodipodi:role="line"
         y="715.2215"
         x="290.79214 295.582 300.37189 305.16174 307.90314">340.2</tspan>
    </text>
    <text
       id="text4485"
       style="font-variant:normal;font-weight:normal;font-stretch:normal;font-size:7.53125px;font-family:Verdana;-inkscape-font-specification:Verdana;writing-mode:lr-tb;fill:#000000;fill-opacity:1;fill-rule:nonzero;stroke:none"
       x="369.33087"
       y="715.2215">
      <tspan
         id="tspan4487"
         sodipodi:role="line"
         y="715.2215"
         x="369.33087 374.12076 378.91064 383.7005 386.44189">346.6</tspan>
    </text>
    <text
       id="text4489"
       style="font-variant:normal;font-weight:normal;font-stretch:normal;font-size:7.53125px;font-family:Verdana;-inkscape-font-specification:Verdana;writing-mode:lr-tb;fill:#000000;fill-opacity:1;fill-rule:nonzero;stroke:none"
       x="447.05212"
       y="715.2215">
      <tspan
         id="tspan4491"
         sodipodi:role="line"
         y="715.2215"
         x="447.05212 451.84201 456.63187">353</tspan>
    </text>
    <g
       transform="matrix(1.25,0,0,-1.25,66.13588,300.1715)"
       id="g4493">
      <path
         inkscape:connector-curvature="0"
         id="path4495"
         style="fill:none;stroke:#000000;stroke-width:0.44499999;stroke-linecap:round;stroke-linejoin:round;stroke-miterlimit:10;stroke-dasharray:none;stroke-opacity:1"
         d="m 0,0 0,-314.16 -8.94,0" />
    </g>
    <text
       id="text4497"
       style="font-variant:normal;font-weight:normal;font-stretch:normal;font-size:7.53125px;font-family:Verdana;-inkscape-font-specification:Verdana;writing-mode:lr-tb;fill:#000000;fill-opacity:1;fill-rule:nonzero;stroke:none"
       x="36.88588"
       y="695.04651">
      <tspan
         id="tspan4499"
         sodipodi:role="line"
         y="695.04651"
         x="36.88588 41.675755 46.46563">120</tspan>
    </text>
    <g
       transform="matrix(1.25,0,0,-1.25,66.13588,614.3465)"
       id="g4501">
      <path
         inkscape:connector-curvature="0"
         id="path4503"
         style="fill:none;stroke:#000000;stroke-width:0.44499999;stroke-linecap:round;stroke-linejoin:round;stroke-miterlimit:10;stroke-dasharray:none;stroke-opacity:1"
         d="M 0,0 -8.94,0" />
    </g>
    <text
       id="text4505"
       style="font-variant:normal;font-weight:normal;font-stretch:normal;font-size:7.53125px;font-family:Verdana;-inkscape-font-specification:Verdana;writing-mode:lr-tb;fill:#000000;fill-opacity:1;fill-rule:nonzero;stroke:none"
       x="36.88588"
       y="616.52148">
      <tspan
         id="tspan4507"
         sodipodi:role="line"
         y="616.52148"
         x="36.88588 41.675755 46.46563">136</tspan>
    </text>
    <g
       transform="matrix(1.25,0,0,-1.25,66.13588,535.8215)"
       id="g4509">
      <path
         inkscape:connector-curvature="0"
         id="path4511"
         style="fill:none;stroke:#000000;stroke-width:0.44499999;stroke-linecap:round;stroke-linejoin:round;stroke-miterlimit:10;stroke-dasharray:none;stroke-opacity:1"
         d="M 0,0 -8.94,0" />
    </g>
    <text
       id="text4513"
       style="font-variant:normal;font-weight:normal;font-stretch:normal;font-size:7.53125px;font-family:Verdana;-inkscape-font-specification:Verdana;writing-mode:lr-tb;fill:#000000;fill-opacity:1;fill-rule:nonzero;stroke:none"
       x="36.88588"
       y="537.92151">
      <tspan
         id="tspan4515"
         sodipodi:role="line"
         y="537.92151"
         x="36.88588 41.675755 46.46563">152</tspan>
    </text>
    <g
       transform="matrix(1.25,0,0,-1.25,66.13588,457.2215)"
       id="g4517">
      <path
         inkscape:connector-curvature="0"
         id="path4519"
         style="fill:none;stroke:#000000;stroke-width:0.44499999;stroke-linecap:round;stroke-linejoin:round;stroke-miterlimit:10;stroke-dasharray:none;stroke-opacity:1"
         d="M 0,0 -8.94,0" />
    </g>
    <text
       id="text4521"
       style="font-variant:normal;font-weight:normal;font-stretch:normal;font-size:7.53125px;font-family:Verdana;-inkscape-font-specification:Verdana;writing-mode:lr-tb;fill:#000000;fill-opacity:1;fill-rule:nonzero;stroke:none"
       x="36.88588"
       y="459.39651">
      <tspan
         id="tspan4523"
         sodipodi:role="line"
         y="459.39651"
         x="36.88588 41.675755 46.46563">168</tspan>
    </text>
    <g
       transform="matrix(1.25,0,0,-1.25,66.13588,378.6965)"
       id="g4525">
      <path
         inkscape:connector-curvature="0"
         id="path4527"
         style="fill:none;stroke:#000000;stroke-width:0.44499999;stroke-linecap:round;stroke-linejoin:round;stroke-miterlimit:10;stroke-dasharray:none;stroke-opacity:1"
         d="M 0,0 -8.94,0" />
    </g>
    <text
       id="text4529"
       style="font-variant:normal;font-weight:normal;font-stretch:normal;font-size:7.53125px;font-family:Verdana;-inkscape-font-specification:Verdana;writing-mode:lr-tb;fill:#000000;fill-opacity:1;fill-rule:nonzero;stroke:none"
       x="36.88588"
       y="380.87149">
      <tspan
         id="tspan4531"
         sodipodi:role="line"
         y="380.87149"
         x="36.88588 41.675755 46.46563">184</tspan>
    </text>
    <g
       transform="matrix(1.25,0,0,-1.25,66.13588,300.1715)"
       id="g4533">
      <path
         inkscape:connector-curvature="0"
         id="path4535"
         style="fill:none;stroke:#000000;stroke-width:0.44499999;stroke-linecap:round;stroke-linejoin:round;stroke-miterlimit:10;stroke-dasharray:none;stroke-opacity:1"
         d="M 0,0 -8.94,0" />
    </g>
    <text
       id="text4537"
       style="font-variant:normal;font-weight:normal;font-stretch:normal;font-size:7.53125px;font-family:Verdana;-inkscape-font-specification:Verdana;writing-mode:lr-tb;fill:#000000;fill-opacity:1;fill-rule:nonzero;stroke:none"
       x="36.88588"
       y="302.3465">
      <tspan
         id="tspan4539"
         sodipodi:role="line"
         y="302.3465"
         x="36.88588 41.675755 46.46563">200</tspan>
    </text>
    <g
       transform="matrix(1.25,0,0,-1.25,66.135942,294.30756)"
       id="g4541">
      <path
         inkscape:connector-curvature="0"
         id="path4543"
         style="fill:#ffffff;fill-opacity:1;fill-rule:nonzero;stroke:none"
         d="m 0,0 314.16,0 0,-314.16 -314.16,0" />
    </g>
    <text
       id="text4549"
       style="font-style:normal;font-variant:normal;font-weight:normal;font-stretch:normal;font-size:15.67500019px;line-height:125%;font-family:Verdana;-inkscape-font-specification:'Verdana, Normal';text-align:center;writing-mode:lr-tb;text-anchor:middle;fill:#000000;fill-opacity:1;fill-rule:nonzero;stroke:none"
       x="258.23495"
       y="736.28149"
       sodipodi:linespacing="125%">
      <tspan
         id="tspan4551"
         sodipodi:role="line"
         x="258.23495"
         y="736.28149">\(X_{1}\)\;\(\celcius\)</tspan>
    </text>
    <text
       id="text4553"
       style="font-style:normal;font-variant:normal;font-weight:normal;font-stretch:normal;font-size:15.67500019px;line-height:125%;font-family:Verdana;-inkscape-font-specification:'Verdana, Normal';text-align:center;writing-mode:lr-tb;text-anchor:middle;fill:#000000;fill-opacity:1;fill-rule:nonzero;stroke:none"
       transform="matrix(0,-1,1,0,0,0)"
       x="-482.07855"
       y="24.735872"
       sodipodi:linespacing="125%">
      <tspan
         id="tspan4555"
         sodipodi:role="line"
         y="24.735872"
         x="-482.07855 -474.95462 -467.83066 -457.08582 -447.10901 -437.14783 -427.17111 -417.20993 -410.086 -402.96204 -397.43692 -386.51962 -379.39569">\(X_{3}\) м/c</tspan>
    </text>
    <g
       transform="matrix(1.25,0,0,-1.25,458.83588,300.1715)"
       id="g4557">
      <path
         inkscape:connector-curvature="0"
         id="path4559"
         style="fill:none;stroke:#000000;stroke-width:0.44499999;stroke-linecap:round;stroke-linejoin:round;stroke-miterlimit:10;stroke-dasharray:none;stroke-opacity:1"
         d="m 0,0 0,-314.16 -314.16,0 0,314.16 L 0,0" />
    </g>
    <g
       transform="matrix(1.25,0,0,-1.25,66.13588,692.8715)"
       id="g4561">
      <path
         inkscape:connector-curvature="0"
         id="path4563"
         style="fill:none;stroke:#a0a0a0;stroke-width:0.44499999;stroke-linecap:round;stroke-linejoin:round;stroke-miterlimit:10;stroke-dasharray:none;stroke-opacity:1"
         d="M 0,0 0,314.16" />
    </g>
    <g
       transform="matrix(1.25,0,0,-1.25,144.58588,692.8715)"
       id="g4565">
      <path
         inkscape:connector-curvature="0"
         id="path4567"
         style="fill:none;stroke:#a0a0a0;stroke-width:0.44499999;stroke-linecap:round;stroke-linejoin:round;stroke-miterlimit:10;stroke-dasharray:none;stroke-opacity:1"
         d="M 0,0 0,314.16" />
    </g>
    <g
       transform="matrix(1.25,0,0,-1.25,223.11088,692.8715)"
       id="g4569">
      <path
         inkscape:connector-curvature="0"
         id="path4571"
         style="fill:none;stroke:#a0a0a0;stroke-width:0.44499999;stroke-linecap:round;stroke-linejoin:round;stroke-miterlimit:10;stroke-dasharray:none;stroke-opacity:1"
         d="M 0,0 0,314.16" />
    </g>
    <g
       transform="matrix(1.25,0,0,-1.25,301.71088,692.8715)"
       id="g4573">
      <path
         inkscape:connector-curvature="0"
         id="path4575"
         style="fill:none;stroke:#a0a0a0;stroke-width:0.44499999;stroke-linecap:round;stroke-linejoin:round;stroke-miterlimit:10;stroke-dasharray:none;stroke-opacity:1"
         d="M 0,0 0,314.16" />
    </g>
    <g
       transform="matrix(1.25,0,0,-1.25,380.23588,692.8715)"
       id="g4577">
      <path
         inkscape:connector-curvature="0"
         id="path4579"
         style="fill:none;stroke:#a0a0a0;stroke-width:0.44499999;stroke-linecap:round;stroke-linejoin:round;stroke-miterlimit:10;stroke-dasharray:none;stroke-opacity:1"
         d="M 0,0 0,314.16" />
    </g>
    <g
       transform="matrix(1.25,0,0,-1.25,458.83588,692.8715)"
       id="g4581">
      <path
         inkscape:connector-curvature="0"
         id="path4583"
         style="fill:none;stroke:#a0a0a0;stroke-width:0.44499999;stroke-linecap:round;stroke-linejoin:round;stroke-miterlimit:10;stroke-dasharray:none;stroke-opacity:1"
         d="M 0,0 0,314.16" />
    </g>
    <g
       transform="matrix(1.25,0,0,-1.25,66.13588,692.8715)"
       id="g4585">
      <path
         inkscape:connector-curvature="0"
         id="path4587"
         style="fill:none;stroke:#a0a0a0;stroke-width:0.44499999;stroke-linecap:round;stroke-linejoin:round;stroke-miterlimit:10;stroke-dasharray:none;stroke-opacity:1"
         d="M 0,0 314.16,0" />
    </g>
    <g
       transform="matrix(1.25,0,0,-1.25,66.13588,614.3465)"
       id="g4589">
      <path
         inkscape:connector-curvature="0"
         id="path4591"
         style="fill:none;stroke:#a0a0a0;stroke-width:0.44499999;stroke-linecap:round;stroke-linejoin:round;stroke-miterlimit:10;stroke-dasharray:none;stroke-opacity:1"
         d="M 0,0 314.16,0" />
    </g>
    <g
       transform="matrix(1.25,0,0,-1.25,66.13588,535.8215)"
       id="g4593">
      <path
         inkscape:connector-curvature="0"
         id="path4595"
         style="fill:none;stroke:#a0a0a0;stroke-width:0.44499999;stroke-linecap:round;stroke-linejoin:round;stroke-miterlimit:10;stroke-dasharray:none;stroke-opacity:1"
         d="M 0,0 314.16,0" />
    </g>
    <g
       transform="matrix(1.25,0,0,-1.25,66.13588,457.2215)"
       id="g4597">
      <path
         inkscape:connector-curvature="0"
         id="path4599"
         style="fill:none;stroke:#a0a0a0;stroke-width:0.44499999;stroke-linecap:round;stroke-linejoin:round;stroke-miterlimit:10;stroke-dasharray:none;stroke-opacity:1"
         d="M 0,0 314.16,0" />
    </g>
    <g
       transform="matrix(1.25,0,0,-1.25,66.13588,378.6965)"
       id="g4601">
      <path
         inkscape:connector-curvature="0"
         id="path4603"
         style="fill:none;stroke:#a0a0a0;stroke-width:0.44499999;stroke-linecap:round;stroke-linejoin:round;stroke-miterlimit:10;stroke-dasharray:none;stroke-opacity:1"
         d="M 0,0 314.16,0" />
    </g>
    <g
       transform="matrix(1.25,0,0,-1.25,66.13588,300.1715)"
       id="g4605">
      <path
         inkscape:connector-curvature="0"
         id="path4607"
         style="fill:none;stroke:#a0a0a0;stroke-width:0.44499999;stroke-linecap:round;stroke-linejoin:round;stroke-miterlimit:10;stroke-dasharray:none;stroke-opacity:1"
         d="M 0,0 314.16,0" />
    </g>
    <g
       transform="matrix(1.25,0,0,-1.25,290.46088,692.8715)"
       id="g4609">
      <path
         inkscape:connector-curvature="0"
         id="path4611"
         style="fill:none;stroke:#000000;stroke-width:0.44499999;stroke-linecap:round;stroke-linejoin:round;stroke-miterlimit:10;stroke-dasharray:none;stroke-opacity:1"
         d="m 0,0 -6.66,7.92 c -48.252,54.949 -98.519,109.543 -157.14,153.66 l -15.66,11.1" />
    </g>
    <g
       transform="matrix(1.25,0,0,-1.25,356.76088,692.8715)"
       id="g4613">
      <path
         inkscape:connector-curvature="0"
         id="path4615"
         style="fill:none;stroke:#000000;stroke-width:0.44499999;stroke-linecap:round;stroke-linejoin:round;stroke-miterlimit:10;stroke-dasharray:none;stroke-opacity:1"
         d="m 0,0 -11.64,15.72 -0.96,1.38 c -30.775,41.136 -61.959,81.966 -94.26,121.92 l -1.98,2.34 -12.9,15.72 c -30.1,36.325 -61.29,71.825 -95.1,104.76 l -5.64,5.22 -10.02,9.54" />
    </g>
    <g
       transform="matrix(1.25,0,0,-1.25,413.31088,692.8715)"
       id="g4617">
      <path
         inkscape:connector-curvature="0"
         id="path4619"
         style="fill:none;stroke:#000000;stroke-width:0.44499999;stroke-linecap:round;stroke-linejoin:round;stroke-miterlimit:10;stroke-dasharray:none;stroke-opacity:1"
         d="m 0,0 -10.38,15.72 -0.3,0.54 c -27.958,41.705 -55.667,83.563 -83.88,125.1 l -10.38,15.54 -0.18,0.18 c -31.076,45.915 -62.423,91.641 -94.08,137.16 l -3.12,4.2 -11.04,15.72" />
    </g>
    <g
       transform="matrix(1.25,0,0,-1.25,458.83588,685.0715)"
       id="g4621">
      <path
         inkscape:connector-curvature="0"
         id="path4623"
         style="fill:none;stroke:#000000;stroke-width:0.44499999;stroke-linecap:round;stroke-linejoin:round;stroke-miterlimit:10;stroke-dasharray:none;stroke-opacity:1"
         d="m 0,0 -5.88,9.48 c -56.992,93.564 -113.591,187.38 -167.58,282.72 l -9,15.72" />
    </g>
    <g
       transform="matrix(1.25,0,0,-1.25,458.83588,604.1465)"
       id="g4625">
      <path
         inkscape:connector-curvature="0"
         id="path4627"
         style="fill:none;stroke:#000000;stroke-width:0.44499999;stroke-linecap:round;stroke-linejoin:round;stroke-miterlimit:10;stroke-dasharray:none;stroke-opacity:1"
         d="M 0,0 -4.32,7.56 C -46.335,82.905 -87.573,158.884 -125.7,236.28 l -3.48,6.9" />
    </g>
    <g
       transform="matrix(1.25,0,0,-1.25,458.83588,517.6715)"
       id="g4629">
      <path
         inkscape:connector-curvature="0"
         id="path4631"
         style="fill:none;stroke:#000000;stroke-width:0.44499999;stroke-linecap:round;stroke-linejoin:round;stroke-miterlimit:10;stroke-dasharray:none;stroke-opacity:1"
         d="M 0,0 -0.6,1.2 C -27.708,54.351 -54.006,108.153 -78.54,162.54 L -83.82,174" />
    </g>
    <path
       inkscape:connector-curvature="0"
       id="path4633"
       style="fill:#ffffff;fill-opacity:1;fill-rule:evenodd;stroke:#000000;stroke-width:0.55624998;stroke-linecap:round;stroke-linejoin:miter;stroke-miterlimit:10;stroke-dasharray:none;stroke-opacity:1"
       d="m 165.48588,548.0965 -11.325,0 0,10.875 11.325,0 0,-10.875 z" />
    <text
       id="text4635"
       style="font-variant:normal;font-weight:normal;font-stretch:normal;font-size:9.08874989px;font-family:Verdana;-inkscape-font-specification:Verdana;writing-mode:lr-tb;fill:#000000;fill-opacity:1;fill-rule:nonzero;stroke:none"
       x="156.93581"
       y="557.17169">
      <tspan
         id="tspan4637"
         y="557.17169"
         x="156.93581">3</tspan>
    </text>
    <path
       inkscape:connector-curvature="0"
       id="path4639"
       style="fill:#ffffff;fill-opacity:1;fill-rule:evenodd;stroke:#000000;stroke-width:0.55624998;stroke-linecap:round;stroke-linejoin:miter;stroke-miterlimit:10;stroke-dasharray:none;stroke-opacity:1"
       d="m 236.83588,513.2215 -20.325,0 0,10.875 20.325,0 0,-10.875 z" />
    <text
       id="text4641"
       style="font-variant:normal;font-weight:normal;font-stretch:normal;font-size:9.08874989px;font-family:Verdana;-inkscape-font-specification:Verdana;writing-mode:lr-tb;fill:#000000;fill-opacity:1;fill-rule:nonzero;stroke:none"
       x="219.28589"
       y="522.29639">
      <tspan
         id="tspan4643"
         sodipodi:role="line"
         y="522.29639"
         x="219.28589 225.06635 228.37463">3.1</tspan>
    </text>
    <path
       inkscape:connector-curvature="0"
       id="path4645"
       style="fill:#ffffff;fill-opacity:1;fill-rule:evenodd;stroke:#000000;stroke-width:0.55624998;stroke-linecap:round;stroke-linejoin:miter;stroke-miterlimit:10;stroke-dasharray:none;stroke-opacity:1"
       d="m 292.11088,485.5715 -20.4,0 0,10.875 20.4,0 0,-10.875 z" />
    <text
       id="text4647"
       style="font-variant:normal;font-weight:normal;font-stretch:normal;font-size:9.08874989px;font-family:Verdana;-inkscape-font-specification:Verdana;writing-mode:lr-tb;fill:#000000;fill-opacity:1;fill-rule:nonzero;stroke:none"
       x="274.48587"
       y="494.64651">
      <tspan
         id="tspan4649"
         sodipodi:role="line"
         y="494.64651"
         x="274.48587 280.26633 283.57462">3.2</tspan>
    </text>
    <path
       inkscape:connector-curvature="0"
       id="path4651"
       style="fill:#ffffff;fill-opacity:1;fill-rule:evenodd;stroke:#000000;stroke-width:0.55624998;stroke-linecap:round;stroke-linejoin:miter;stroke-miterlimit:10;stroke-dasharray:none;stroke-opacity:1"
       d="m 351.13588,478.9715 -20.325,0 0,10.875 20.325,0 0,-10.875 z" />
    <text
       id="text4653"
       style="font-variant:normal;font-weight:normal;font-stretch:normal;font-size:9.08874989px;font-family:Verdana;-inkscape-font-specification:Verdana;writing-mode:lr-tb;fill:#000000;fill-opacity:1;fill-rule:nonzero;stroke:none"
       x="333.58588"
       y="488.04651">
      <tspan
         id="tspan4655"
         sodipodi:role="line"
         y="488.04651"
         x="333.58588 339.36633 342.67462">3.3</tspan>
    </text>
    <path
       inkscape:connector-curvature="0"
       id="path4657"
       style="fill:#ffffff;fill-opacity:1;fill-rule:evenodd;stroke:#000000;stroke-width:0.55624998;stroke-linecap:round;stroke-linejoin:miter;stroke-miterlimit:10;stroke-dasharray:none;stroke-opacity:1"
       d="m 388.33588,446.3465 -20.4,0 0,10.8 20.4,0 0,-10.8 z" />
    <text
       id="text4659"
       style="font-variant:normal;font-weight:normal;font-stretch:normal;font-size:9.08874989px;font-family:Verdana;-inkscape-font-specification:Verdana;writing-mode:lr-tb;fill:#000000;fill-opacity:1;fill-rule:nonzero;stroke:none"
       x="370.71088"
       y="455.3465">
      <tspan
         id="tspan4661"
         sodipodi:role="line"
         y="455.3465"
         x="370.71088 376.49133 379.79962">3.4</tspan>
    </text>
    <path
       inkscape:connector-curvature="0"
       id="path4663"
       style="fill:#ffffff;fill-opacity:1;fill-rule:evenodd;stroke:#000000;stroke-width:0.55624998;stroke-linecap:round;stroke-linejoin:miter;stroke-miterlimit:10;stroke-dasharray:none;stroke-opacity:1"
       d="m 410.08588,387.7715 -20.4,0 0,10.875 20.4,0 0,-10.875 z" />
    <text
       id="text4665"
       style="font-variant:normal;font-weight:normal;font-stretch:normal;font-size:9.08874989px;font-family:Verdana;-inkscape-font-specification:Verdana;writing-mode:lr-tb;fill:#000000;fill-opacity:1;fill-rule:nonzero;stroke:none"
       x="392.53589"
       y="396.8465">
      <tspan
         id="tspan4667"
         sodipodi:role="line"
         y="396.8465"
         x="392.53589 398.31631 401.62463">3.5</tspan>
    </text>
    <g
       id="g5146"
       inkscape:label="22 5"
       transform="matrix(1.25,0,0,-1.25,-230.1169,1304.1366)">
      <g
         id="g5284"
         transform="translate(551.22035,637.25178)">
        <path
           d="m 0,0 -4.02,8.88 c -21.902,48.855 -46.651,96.546 -76.02,141.36 l -10.68,15.72"
           style="fill:none;stroke:#000000;stroke-width:1.60000002;stroke-linecap:round;stroke-linejoin:round;stroke-miterlimit:10;stroke-dasharray:1.6, 12.8;stroke-dashoffset:0;stroke-opacity:1"
           id="path5286"
           inkscape:connector-curvature="0" />
      </g>
      <g
         id="g5288"
         transform="translate(523.62035,489.05178)">
        <path
           d="m 0,0 -3.84,8.7 -3.18,7.02 C -28.733,63.33 -53.234,109.787 -82.38,153.3 L -96,172.8 c -30.813,42.259 -67.139,81.75 -111.54,109.98 l -0.48,0.3 -15.72,9.12 -12.54,6.24 -3.18,1.56 -15.72,6.42 -15.72,5.22 -10.08,2.52"
           style="fill:none;stroke:#000000;stroke-width:1.60000002;stroke-linecap:round;stroke-linejoin:round;stroke-miterlimit:10;stroke-dasharray:1.6, 19.2;stroke-dashoffset:0;stroke-opacity:1"
           id="path5290"
           inkscape:connector-curvature="0" />
      </g>
      <g
         id="g5292"
         transform="translate(413.34035,489.05178)">
        <path
           d="m 0,0 -3.48,5.16 -7.56,10.56 -8.16,11.16 -3.6,4.5 -12.12,15.3 -0.42,0.42 -13.74,15.72 -1.56,1.74 -13.5,13.98 -2.22,2.16 c -17.353,16.954 -36.29,32.438 -57.12,44.94 l -5.7,3.54 -15.72,8.4 -8.4,3.78 -7.32,3.24 -15.66,5.64"
           style="fill:none;stroke:#000000;stroke-width:1.60000002;stroke-linecap:round;stroke-linejoin:round;stroke-miterlimit:10;stroke-dasharray:1.6, 12.8;stroke-dashoffset:0;stroke-opacity:1"
           id="path5294"
           inkscape:connector-curvature="0" />
      </g>
      <path
         d="m 529.81568,705.86731 -16.26,0 0,-8.7 16.26,0 0,8.7 z"
         style="fill:#ffffff;fill-opacity:1;fill-rule:evenodd;stroke:#000000;stroke-width:0.44499999;stroke-linecap:round;stroke-linejoin:miter;stroke-miterlimit:10;stroke-dasharray:none;stroke-opacity:1"
         id="path5296"
         inkscape:connector-curvature="0" />
      <path
         d="m 422.52035,686.27178 -13.62,0 0,-8.64 13.62,0 0,8.64 z"
         style="fill:#ffffff;fill-opacity:1;fill-rule:evenodd;stroke:#000000;stroke-width:0.44499999;stroke-linecap:round;stroke-linejoin:miter;stroke-miterlimit:10;stroke-dasharray:none;stroke-opacity:1"
         id="path5302"
         inkscape:connector-curvature="0" />
      <path
         d="m 342.78035,592.07178 -20.88,0 0,-8.7 20.88,0 0,8.7 z"
         style="fill:#ffffff;fill-opacity:1;fill-rule:evenodd;stroke:#000000;stroke-width:0.44499999;stroke-linecap:round;stroke-linejoin:miter;stroke-miterlimit:10;stroke-dasharray:none;stroke-opacity:1"
         id="path5308"
         inkscape:connector-curvature="0" />
      <text
         transform="scale(1,-1)"
         style="font-variant:normal;font-weight:normal;font-stretch:normal;font-size:7.27059984px;font-family:Verdana;-inkscape-font-specification:Verdana;writing-mode:lr-tb;fill:#000000;fill-opacity:1;fill-rule:nonzero;stroke:none"
         id="text5298"
         x="515.77557"
         y="-698.60803">
        <tspan
           x="515.77557 520.3996 523.04602"
           y="-698.60803"
           sodipodi:role="line"
           id="tspan5300">9.5</tspan>
      </text>
      <text
         transform="scale(1,-1)"
         style="font-variant:normal;font-weight:normal;font-stretch:normal;font-size:7.27059984px;font-family:Verdana;-inkscape-font-specification:Verdana;writing-mode:lr-tb;fill:#000000;fill-opacity:1;fill-rule:nonzero;stroke:none"
         id="text5304"
         x="411.12033"
         y="-679.07233">
        <tspan
           x="411.12033 415.74445"
           y="-679.07233"
           sodipodi:role="line"
           id="tspan5306">10</tspan>
      </text>
      <text
         transform="scale(1,-1)"
         style="font-variant:normal;font-weight:normal;font-stretch:normal;font-size:7.27059984px;font-family:Verdana;-inkscape-font-specification:Verdana;writing-mode:lr-tb;fill:#000000;fill-opacity:1;fill-rule:nonzero;stroke:none"
         id="text5310"
         x="324.06033"
         y="-584.81232">
        <tspan
           x="324.06033 328.68445 333.30853 335.95505"
           y="-584.81232"
           sodipodi:role="line"
           id="tspan5312">10.5</tspan>
      </text>
    </g>
    <g
       id="g4800"
       inkscape:label="22 3"
       transform="matrix(1.25,0,0,-1.25,-231.39279,1296.8715)">
      <g
         id="g4930"
         transform="translate(552.18,483.2)">
        <path
           d="M 0,0 0,314.16"
           style="fill:none;stroke:#a0a0a0;stroke-width:0.44499999;stroke-linecap:round;stroke-linejoin:round;stroke-miterlimit:10;stroke-dasharray:none;stroke-opacity:1"
           id="path4932"
           inkscape:connector-curvature="0" />
      </g>
      <g
         id="g4958"
         transform="translate(255.78,483.2)">
        <path
           d="m 0,0 -2.1,5.4 -3.84,10.32 -5.4,15.66 -5.1,15.72 -1.32,4.44"
           style="fill:none;stroke:#000000;stroke-width:0.44499999;stroke-linecap:round;stroke-linejoin:round;stroke-miterlimit:10;stroke-dasharray:none;stroke-opacity:1"
           id="path4960"
           inkscape:connector-curvature="0" />
      </g>
      <g
         id="g4962"
         transform="translate(329.82,483.2)">
        <path
           d="m 0,0 -8.34,15.72 -4.92,9.96 c -15.299,32.042 -27.041,65.606 -35.94,99.96 l -3.9,15.72 -3.48,15.72 c -8.749,41.117 -13.74,83.752 -15.9,125.7 l -0.72,15.66 -0.42,15.72"
           style="fill:none;stroke:#000000;stroke-width:0.44499999;stroke-linecap:round;stroke-linejoin:round;stroke-miterlimit:10;stroke-dasharray:10.67999954, 10.67999954;stroke-dashoffset:0;stroke-opacity:1"
           id="path4964"
           inkscape:connector-curvature="0" />
      </g>
      <g
         id="g4966"
         transform="translate(434.28,483.2)">
        <path
           d="m 0,0 -7.8,7.68 c -75.096,79.31 -103.487,198.571 -109.92,304.56 l -0.18,1.92"
           style="fill:none;stroke:#000000;stroke-width:0.44499999;stroke-linecap:round;stroke-linejoin:round;stroke-miterlimit:10;stroke-dasharray:10.67999954, 10.67999954;stroke-dashoffset:0;stroke-opacity:1"
           id="path4968"
           inkscape:connector-curvature="0" />
      </g>
      <g
         id="g4970"
         transform="translate(552.18,538.04)">
        <path
           d="m 0,0 -15.72,6.12 -3.78,1.86 -11.94,6.18 -14.82,9.54 c -68.891,49.252 -101.633,139.266 -114.06,219.9 l -2.16,15.72"
           style="fill:none;stroke:#000000;stroke-width:0.44499999;stroke-linecap:round;stroke-linejoin:round;stroke-miterlimit:10;stroke-dasharray:10.67999954, 10.67999954;stroke-dashoffset:0;stroke-opacity:1"
           id="path4972"
           inkscape:connector-curvature="0" />
      </g>
      <g
         id="g4974"
         transform="translate(552.18,699.56)">
        <path
           d="m 0,0 -3.9,3.54 -11.82,11.82 -3.24,3.9 -11.94,15.72 -0.54,0.78 -8.88,14.94 -6.78,13.02 -1.26,2.7 -6.54,15.66 -5.64,15.72"
           style="fill:none;stroke:#000000;stroke-width:0.44499999;stroke-linecap:round;stroke-linejoin:round;stroke-miterlimit:10;stroke-dasharray:10.67999954, 10.67999954;stroke-dashoffset:0;stroke-opacity:1"
           id="path4976"
           inkscape:connector-curvature="0" />
      </g>
      <path
         d="m 248.94,523.34 -9.06,0 0,-8.7 9.06,0 0,8.7 z"
         style="fill:#ffffff;fill-opacity:1;fill-rule:evenodd;stroke:#000000;stroke-width:0.44499999;stroke-linecap:round;stroke-linejoin:miter;stroke-miterlimit:10;stroke-dasharray:none;stroke-opacity:1"
         id="path4978"
         inkscape:connector-curvature="0" />
      <path
         d="m 281.22,633.32 -9.06,0 0,-8.7 9.06,0 0,8.7 z"
         style="fill:#ffffff;fill-opacity:1;fill-rule:evenodd;stroke:#000000;stroke-width:0.44499999;stroke-linecap:round;stroke-linejoin:miter;stroke-miterlimit:10;stroke-dasharray:none;stroke-opacity:1"
         id="path4984"
         inkscape:connector-curvature="0" />
      <path
         d="m 353.16,633.32 -9.06,0 0,-8.7 9.06,0 0,8.7 z"
         style="fill:#ffffff;fill-opacity:1;fill-rule:evenodd;stroke:#000000;stroke-width:0.44499999;stroke-linecap:round;stroke-linejoin:miter;stroke-miterlimit:10;stroke-dasharray:none;stroke-opacity:1"
         id="path4990"
         inkscape:connector-curvature="0" />
      <path
         d="m 442.38,649.04 -9.06,0 0,-8.7 9.06,0 0,8.7 z"
         style="fill:#ffffff;fill-opacity:1;fill-rule:evenodd;stroke:#000000;stroke-width:0.44499999;stroke-linecap:round;stroke-linejoin:miter;stroke-miterlimit:10;stroke-dasharray:none;stroke-opacity:1"
         id="path4996"
         inkscape:connector-curvature="0" />
      <path
         d="m 527.58,744.08 -13.62,0 0,-8.7 13.62,0 0,8.7 z"
         style="fill:#ffffff;fill-opacity:1;fill-rule:evenodd;stroke:#000000;stroke-width:0.44499999;stroke-linecap:round;stroke-linejoin:miter;stroke-miterlimit:10;stroke-dasharray:none;stroke-opacity:1"
         id="path5002"
         inkscape:connector-curvature="0" />
      <text
         transform="matrix(1,0,0,-1,242.1,516.08)"
         style="font-variant:normal;font-weight:normal;font-stretch:normal;font-size:7.27099991px;font-family:Verdana;-inkscape-font-specification:Verdana;writing-mode:lr-tb;fill:#000000;fill-opacity:1;fill-rule:nonzero;stroke:none"
         id="text4980">
        <tspan
           x="0"
           y="0"
           id="tspan4982">6</tspan>
      </text>
      <text
         transform="matrix(1,0,0,-1,274.38,626.06)"
         style="font-variant:normal;font-weight:normal;font-stretch:normal;font-size:7.27099991px;font-family:Verdana;-inkscape-font-specification:Verdana;writing-mode:lr-tb;fill:#000000;fill-opacity:1;fill-rule:nonzero;stroke:none"
         id="text4986">
        <tspan
           x="0"
           y="0"
           id="tspan4988">7</tspan>
      </text>
      <text
         transform="matrix(1,0,0,-1,346.32,626.06)"
         style="font-variant:normal;font-weight:normal;font-stretch:normal;font-size:7.27099991px;font-family:Verdana;-inkscape-font-specification:Verdana;writing-mode:lr-tb;fill:#000000;fill-opacity:1;fill-rule:nonzero;stroke:none"
         id="text4992">
        <tspan
           x="0"
           y="0"
           id="tspan4994">8</tspan>
      </text>
      <text
         transform="matrix(1,0,0,-1,435.54,641.78)"
         style="font-variant:normal;font-weight:normal;font-stretch:normal;font-size:7.27099991px;font-family:Verdana;-inkscape-font-specification:Verdana;writing-mode:lr-tb;fill:#000000;fill-opacity:1;fill-rule:nonzero;stroke:none"
         id="text4998">
        <tspan
           x="0"
           y="0"
           id="tspan5000">9</tspan>
      </text>
      <text
         transform="matrix(1,0,0,-1,516.12,736.82)"
         style="font-variant:normal;font-weight:normal;font-stretch:normal;font-size:7.27099991px;font-family:Verdana;-inkscape-font-specification:Verdana;writing-mode:lr-tb;fill:#000000;fill-opacity:1;fill-rule:nonzero;stroke:none"
         id="text5004">
        <tspan
           x="0 4.6243558"
           y="0"
           sodipodi:role="line"
           id="tspan5006">10</tspan>
      </text>
    </g>
    <g
       inkscape:label="Layer 1"
       id="layer1-7"
       transform="translate(-74.346212,231.32646)" />
    <g
       transform="translate(-132.47644,519.21483)"
       id="layer1-0"
       inkscape:label="Layer 1" />
  </g>
</svg>
